<mxfile host="65bd71144e">
    <diagram id="Y7fihANPft0e8j0MNyFT" name="Page-1">
        <mxGraphModel dx="816" dy="563" grid="1" gridSize="10" guides="1" tooltips="1" connect="1" arrows="1" fold="1" page="1" pageScale="1" pageWidth="850" pageHeight="1100" math="0" shadow="0">
            <root>
                <mxCell id="0"/>
                <mxCell id="1" parent="0"/>
                <mxCell id="11" value="" style="edgeStyle=none;html=1;" parent="1" source="6" target="7" edge="1">
                    <mxGeometry relative="1" as="geometry"/>
                </mxCell>
                <mxCell id="6" value="Start" style="ellipse;whiteSpace=wrap;html=1;aspect=fixed;" parent="1" vertex="1">
                    <mxGeometry x="75" y="220" width="50" height="50" as="geometry"/>
                </mxCell>
                <mxCell id="22" value="" style="edgeStyle=none;html=1;" parent="1" source="7" target="21" edge="1">
                    <mxGeometry relative="1" as="geometry"/>
                </mxCell>
                <mxCell id="7" value="Import dehazed image, dehazed checker and original checker" style="rounded=1;whiteSpace=wrap;html=1;" parent="1" vertex="1">
                    <mxGeometry x="165" y="215" width="120" height="60" as="geometry"/>
                </mxCell>
                <mxCell id="10" style="edgeStyle=none;html=1;entryX=0.5;entryY=0;entryDx=0;entryDy=0;" parent="1" target="7" edge="1">
                    <mxGeometry relative="1" as="geometry">
                        <mxPoint x="120" y="180" as="sourcePoint"/>
                        <Array as="points">
                            <mxPoint x="225" y="180"/>
                            <mxPoint x="225" y="200"/>
                        </Array>
                    </mxGeometry>
                </mxCell>
                <mxCell id="13" value="Dehazed checker&lt;br&gt;(uint8 RGB image)" style="text;html=1;strokeColor=none;fillColor=none;align=center;verticalAlign=middle;whiteSpace=wrap;rounded=0;" parent="1" vertex="1">
                    <mxGeometry x="115" y="150" width="110" height="30" as="geometry"/>
                </mxCell>
                <mxCell id="14" value="Original checker&lt;br&gt;(uint8 RGB image)" style="text;html=1;strokeColor=none;fillColor=none;align=center;verticalAlign=middle;whiteSpace=wrap;rounded=0;" parent="1" vertex="1">
                    <mxGeometry x="115" y="300" width="110" height="31" as="geometry"/>
                </mxCell>
                <mxCell id="17" value="Dehazed image&lt;br&gt;(uint8 RGB image)" style="text;html=1;strokeColor=none;fillColor=none;align=center;verticalAlign=middle;whiteSpace=wrap;rounded=0;" parent="1" vertex="1">
                    <mxGeometry x="115" y="110" width="110" height="30" as="geometry"/>
                </mxCell>
                <mxCell id="18" style="edgeStyle=none;html=1;entryX=0.75;entryY=0;entryDx=0;entryDy=0;" parent="1" target="7" edge="1">
                    <mxGeometry relative="1" as="geometry">
                        <mxPoint x="118" y="140" as="sourcePoint"/>
                        <mxPoint x="222.5" y="153" as="targetPoint"/>
                        <Array as="points">
                            <mxPoint x="255" y="140"/>
                        </Array>
                    </mxGeometry>
                </mxCell>
                <mxCell id="20" value="" style="endArrow=classic;html=1;" parent="1" edge="1">
                    <mxGeometry width="50" height="50" relative="1" as="geometry">
                        <mxPoint x="125" y="330" as="sourcePoint"/>
                        <mxPoint x="225" y="275" as="targetPoint"/>
                        <Array as="points">
                            <mxPoint x="225" y="330"/>
                        </Array>
                    </mxGeometry>
                </mxCell>
                <mxCell id="24" value="" style="edgeStyle=none;html=1;" parent="1" source="21" target="23" edge="1">
                    <mxGeometry relative="1" as="geometry"/>
                </mxCell>
                <mxCell id="25" value="True" style="edgeLabel;html=1;align=center;verticalAlign=middle;resizable=0;points=[];" parent="24" vertex="1" connectable="0">
                    <mxGeometry x="-0.3227" y="-3" relative="1" as="geometry">
                        <mxPoint as="offset"/>
                    </mxGeometry>
                </mxCell>
                <mxCell id="29" value="" style="edgeStyle=none;html=1;" parent="1" source="21" target="27" edge="1">
                    <mxGeometry relative="1" as="geometry"/>
                </mxCell>
                <mxCell id="33" value="False" style="edgeLabel;html=1;align=center;verticalAlign=middle;resizable=0;points=[];" parent="29" vertex="1" connectable="0">
                    <mxGeometry x="0.3499" y="1" relative="1" as="geometry">
                        <mxPoint x="-13" as="offset"/>
                    </mxGeometry>
                </mxCell>
                <mxCell id="21" value="Check for empty inputs" style="rounded=1;whiteSpace=wrap;html=1;" parent="1" vertex="1">
                    <mxGeometry x="325" y="215" width="120" height="60" as="geometry"/>
                </mxCell>
                <mxCell id="23" value="Break" style="ellipse;whiteSpace=wrap;html=1;aspect=fixed;" parent="1" vertex="1">
                    <mxGeometry x="360" y="310" width="50" height="50" as="geometry"/>
                </mxCell>
                <mxCell id="31" value="" style="edgeStyle=none;html=1;" parent="1" source="27" target="30" edge="1">
                    <mxGeometry relative="1" as="geometry"/>
                </mxCell>
                <mxCell id="27" value="Get RGB value from original checker patches&lt;span style=&quot;color: rgba(0, 0, 0, 0); font-family: monospace; font-size: 0px; text-align: start;&quot;&gt;%3CmxGraphModel%3E%3Croot%3E%3CmxCell%20id%3D%220%22%2F%3E%3CmxCell%20id%3D%221%22%20parent%3D%220%22%2F%3E%3CmxCell%20id%3D%222%22%20value%3D%22%22%20style%3D%22shape%3Dimage%3BverticalLabelPosition%3Dbottom%3BlabelBackgroundColor%3Ddefault%3BverticalAlign%3Dtop%3Baspect%3Dfixed%3BimageAspect%3D0%3Bimage%3Ddata%3Aimage%2Fpng%2CiVBORw0KGgoAAAANSUhEUgAAAgwAAABVCAYAAAAlmLwZAAAAAXNSR0IArs4c6QAAAARnQU1BAACxjwv8YQUAAAAJcEhZcwAADsMAAA7DAcdvqGQAADt6SURBVHhe7Z0FXJTJG8d%2Fy%2FbC0ikNEhKCgQG2Yrf%2BPc%2F2vLM7zu4489SzMPC8O7vPOrs9O7ALFRXpWBqW3fnPuyyKioBiHDrfj%2FMRZt93l31nnpnfzDzzDI9QwGAwGAwGg1EAOtr%2FGQwGg8FgMN4JEwwMBoPBYDAKhQkGBoPBYDAYhcIEA4PBYDAYjEJhgoHBYDAYDEahMMHAYDAYDAajUJhgYDAYDAaDUShMMDAYDAaDwSgUJhgYDAaDwWAUChMMDAaDwWAwCoUJBgaDwWAwGIXCBAODwWAwGIxCYYKBwWAwGAxGoTDBwGAwGAwGo1CYYGAwGAwGg1EoTDAwGAwGg8EoFCYYGAwGg8H4hsgMP40%2FVx7Ek6xsqLV5RYEJBgaDwWAwvnoyEXt3J8a0KgtP%2F7YYMn4XwjKzQbSvFgUmGBgMBoPB%2BJq5vhB1vLxRf%2BQJWNarBFFMAhIT05D9PmqBwgQDg8FgMBhfM46tMX%2FjHuwMGofugWUhE3xY188EA4PBYDAYXzN61vDycIGdlQnkEiF42uz3hQkGBoPBYDC%2BZng64Ot8qEx4BY9QtD8z%2FuOoVUpkJCciVanNyEWHD6FEDkNdoTaDwfj4ZGemIi01DZkqbcZLBBDryqArE4OvzSk5ZCM9OQXpGUq8%2BbUEUjn0pBIIS96XYvznyEJKfDIyVOq3nAxFetyoXwcfoT8vGk%2BXwc9rKK5kfY%2BD0UtRS19SZLtlgqEEoXh0CZvHtcX0f7UZuUjs4NNoFFbNbwwzbRaD8bF5vGce5i9chF0PtBkvcUfbn4diYN%2F6sNPmlBgSzmDehLlYs%2FsqkrVZufj8OAejf%2FwfqlhqMxiMDyVyMzq0nI4LkQoqUV%2FHfvAObOtZFqayz6RMmWD4Nki4dwarh7XFKnVPzJmYRxzwJdAztYO7g1EJHOExSgrpcc%2FwPPwF4tO1GZRnh4KwYvUVWP80BeNHt4CTNr%2FEEHcY4%2FqNx1FeHXTq2BwV8ihuPUsn2FqZQV%2BkzWAwPpTsONy%2F8QSKvHEPqIjo32M5kvofxsnhfrDQ%2B%2B8LBubDUNLgSaFr6A7fihVRMTeV80IZO0MmFhifFImxNZw989Q7mrycLGEk0V5QgtE1t4eb9%2Bvfzd3WFHImFhgfA4ExSpf1Rfk89auijytkQkHhDohxhzA4oBzcnZ3h%2FB6p0dJrSH57%2FbBYMMFQAuHx%2BBDw%2BeDnSTqfbQGM8a3C4%2BlA5616p%2FPBHtf%2FKej3ePO7cU5izKoYHwfe2%2FVLwImFItQwQ3%2BMXr8d%2Bw4exMH3SCs6lIGu6OMOI5lgYDAYDAbjvwpfFxb2jnDKZxahoGRrKP7ojpRMMDAYDAaDwSgU5vRYgtA4PQ7vjI36M7F7XTsw5%2B2SjSrmHk4dPYB9l59rc4qOoXMl1K3fCJUddbU5X4b7G8diwpQ9kHYu2U6P5616YMywH1HbRpvP%2BI8TjfOr%2FsSh0GgkvfcyfVm0HNocFSz1IdbmfBGeB6OW33BE9voHJ76E02PK99iTuBT12S6JrxMmGL4uSHYaEuNiEB2b8tZWq%2BRb%2B7D20G2oyrRD%2FwZvb1YU6RnDzNwChtIvO0nIBAPjy5ANRfgTRCVlQvnWcYs3sKTzKgh6D8P%2FKtnB%2BK3wNHJYlraCkVj4ZafYP7NguLd7ItaeVeDJ0c3YfikSaSo5rPwaolV1O1RtPwHtK8hRWMRotiTBYHwheAIpDM1sUdrdHe5vJFcHY%2BgbCCAztX7rNS452VrAQMLMl%2FGtIoC%2BlSOcXd%2B2DXd3a%2Biq1DAws0fpfF%2B3gZHoC4uFL4Bjrf4YMHgUZm48het37%2BPBg8s4uWkexv88HM28dMEvwgNhLQ6D8cXggaej87rntDYJqNTXoQMObhdCfq%2Fzud0JzIWf8Q3DowaSr23Qno9z9tPhwiEX8Pq3hkhuBnNzS1g7OMO5dGmU5pKjDSwt6OBDWrTdTkwwMBgMBoPBKBQmGBgMBoPBYBQKEwzfBGpkK9OgiI1FrDbFJSiQ9uYhVgwGg8FgvIPXBIMqKx2HR1SEv7%2F%2FGykANau3weL72guLgioDimu%2Fodlb7%2BWP2g2aYc557XWMT4YqJRrXd85Gl8Dy8PD0QYXKlVE5N%2FlVgE%2FZcqjctB%2BmbT6PCCYeik%2FqPRxY%2FTMa51Pnc1OjPtOw9opCewOjJHB%2F62QMbFUl3%2FLMST3x24HriNZez%2Fgwri3tjvYNq%2BbzfHPTEGy4%2BwIp2usZn5%2FXBIOOQIRyPy3C3Fmj0Vh2GxcuXNCm8%2Fj30lHMW3QQWdprC0OZkYrzv%2F%2BCQy%2Ff4yKu3QmDyXdTMXvGFLR1017I%2BASokPjoNFYPaIBmfWZi5%2BUYiD3bYPii1fjrrz8QvHQ6BrZ0gyTiOi4f2oldf%2B3DvVTtrYwPR2oLv4bdMGpUB1S1VeHpy7p%2FAfcSxXBuMhhDe3ZAPRc97Q2MkoB19U74aehIdKksR8azqy%2FL9AIVfqa%2BrTBgUm80reAIQ%2B31jA%2FDqdkwDB8xGG1c0hB%2B7%2FKr53w1C64NemD0Lz1Qw9YYX8HRJSWW1wQD53Vq7OyHSn410K1jVahUqpcpOzMZ0dt%2FxdYI7cUFQbKQoTiI39dEIfPle%2FAhFNZGp%2B7VUc63LOwNtNcyPjoZEbdwdMVQjN1yA%2BFKc5TrtgSbl%2F6MTvX8UalSFQTUboHuY4Lw5%2FrF6OvLo%2BJOAKlcezPjw9GRwsjSDVXrd0LHFk0R4JBb93Xh6OmP1u2boYa3w%2BcL0ML4KMjMHOFRpRE6%2FdAOFT3sIMht09wD0Lh5c7SoRdszEz2wc6qKh9y6DHyrN8OPfdvBxdwQvNznXKEJOrdqhED%2FMrCSiSHQXs%2F4%2FLzlw8DjCyAQiKBvINPmaCEqpMddxPRVl7UZ70aVkYb7K2Zjd1LemFA86OjowkxfpDk4iZ2V9IlQxyPs3n6sDrqKmFQhrO190eGHhnCzMoaeSEjLVgChSAq5sQ3KlquMeo1qQGrlAHPWh30EuG2SVBhLDGBibARjfW02%2BJDKpDA0lEIsYNshSxqara9CCfQsrGGklyc6oEQfurp6kIkE4LNCLTac7QhEMhjY2MNQLHklDGTG0NfVhUTI9RvsOX9JCnR6FIhEaNClC6y0v5OsZDxd9Rv2xGkz8oMoka44jaXBoVDV6oRObwSpY8X9iUmOQ%2FT1sziq4GIH6kEud4GbmySfguaBTwWE1FAOvkAGqTb360UFpTITGRlvxlQsAJUSGempSHmfezRQ4UArel5RzP3O2roCyM5ARmYWst4jzG92RgpS09Lf655ioYl9kbcQuZ%2B%2FjUJVpimQkq5E9ltRFd%2BNMi1NM8P8HrfkQIXD68KAGc5%2FhQIFA48vgmnDIRhcRZtBxUBa1H5MDrqpzXgbdWYanmydid0p1ug6qCOc2Tzd50WVDVVGEtI1vyiQkHQdV%2B6%2Bw6PR0BX%2BXSdj3fT6MNVmfbVEhWDPrz1R94dRWHk5RptZAMpIXNw2G92adMf44AtI1GYzPg2P9s%2FH8O%2BbYPTSA3hYBJ%2FQjNBdmDu4LVqNDMbhB8wB59MSi6O%2F9ELr5gOw9uxjJBVBP7%2FYPwntm1VD%2Fz%2Bu4WmSNpNR4ilQMICnA6FRaXQc3JqOVXNQZyXg%2FspFOJSszXiNbKSnXUDwnNtQ%2BfVFn8pmbL3ps8Op8dynrkTU7VNYNXwQVlyJoL%2B9AV8MXSNL2FnJv%2F5yMimDSjXqICD7AOZPn4GVVwoQDZxY2LkS0yZtRoK1H1q28AFz8fi02NRoiXrexghZMQkL1xxAaAGigRMLC36ZgxXXrBBQrSYqO37982NfFkP4d%2B8EH1zB7MHTsPUcFQ0FzOpwYqHv5GDccuiE%2F1V1RKkvez4a4yNSsGCg8AQymNYZjgGe2gySjbTo3Zi5Jkyb8QpuduHF9nlYnyhG6%2F6d4CRmU0mfHX0DGLmXRXntr6rMRDw4sRbjW9eCX%2BW66DRiPnb9exsR31oQBoEUVuXboG%2F%2FgWjCP4QF03%2FJXzQoozRiYfrErcgo1x4jp%2FyEKrTF%2B%2FwuHtwncqvl34bkFum7oP7A8ejTzBZ3gidj4R%2F5i4aM0N1YOJOKhRtO6EjLsndTdxiLC23GGMVCALlDPYxcPA4N5SGYO2Q6tr1DNEQcmIx%2BVCzcKTMIcwZ1RA0XQ4i%2BgH8Ud96UWEQ7ONYFfVSKYGk6EBl6offwVppCoIoB2RnxuLpgPg69tscyGxmp5xE07SKyfIdiaD39kt%2FUKVMQe2Mrpo8ZgzHFTRNmYuG6a59%2BaltgDgfPJujaIdd5hJYXt8Ml7D6uXz6FHSuno8%2F3TVGjQhVUbz4Eiw7dw7cSFUBHrAe7yt%2Bj34BBaKwVDavyigYqFi79nSMW0nypWJjWBwH2hvgS%2FZGeRwsMGjYOI5qXuPMfPxABZCbuaDSMioamNri96m3RkCsWll93Qof%2Bg9C%2FlRfMdYVshftzoCOBqUt9jFk2gYqGa%2FmKBk4s9J28CrepWJg7uDMCPcwgKez4w09CeQzasQa9ajjC6K2TKhnFIf%2FjrbPTkbSrE0w7H0anvxVYXVeNzJjzmFTHHzNvcRfwINAthcCVF7Hv%2BxyXSHVWMkI3dkK1ARfQ7M%2B7CGqhB2V8COZVroDxD7krJDC06ILtkctRW3NHftDOLUuBe8c2YfPGvTh8PwIJCamapREdiRks7F3hXysQzVo2hK%2FdG9uYiBIZ8XdxbPNmbPrnKB5EJEBzK58PqZkl7F39Ubt%2BM7RoUBa2ukV0rMhORezt%2FVi2fDdCi7lMypeawDnge%2FTqVBEm2rz3pajHW6uzUxBxaz%2BCZ03GvA03kf8Sog4EtAM1LFUGAU17YtrMH%2BDFbYxJjcL9c%2F9gzZF3R%2BkS6JrAsUIdBPp7wUb%2FXRapRlZKFB5cPIQ9f%2F%2BD42cfISo5GRn0FR2RCHqWdnD1ronABg1RP8AVFjoKPL58DH%2FvufrOADgCuRXcqtZHYDU3mBdDjaozUxB2fgOWLv4N%2B1T1MWTsKPzorc4RCxO2IJWKhVHTiycWnh5YjFljBmDpFe43I1TvOhRTfh2HWsaal78aPv7x1tlIi7uDfXOnImjvc3j%2BNAkDu9SHddweLPxltmZm4ft%2BAzGgtffHEQvvc7x17EGM6j0Oy7ZdzLGpysPx55wh6Fy9lOZlIJm2XTtw6N%2B7ePHO9kIOe79qCKxZHg7Guu8esVHx%2BvDcMezevR%2FHrt%2FF08gUZGVx7oMSyOUWcPItj1ptWyCwYlnYGUgQeeEv7Dp5B8%2FfOSLRh2vdRqhXpQxK0fbvg7txdQZiHxzEjD5TcSDFB8Pnj0WbKo5IPTIFfSetxG23gVRMdCmeWIjYiHaNR2H3tTBNe4HAhbiwrCv8nL%2Byvfif%2BXjrjwInGN5CmUYU21oToUyfdD%2BUk6XOUpB7QfUI7R44gUFoD05MvaeRy5pXlSQ14QQZ6mpCDMtNJVdTubxskhZ3mUwtrb0eEmJo0ZMc1Vz%2FNqoMBbm%2FdQip7%2BVDyjbqQxb8tZ%2BcvXGH3Lp1i9y8eZ2cP76VLBjSlHibOZHydSaT85naGzWfc5tsGhRIvHx9SZP%2Bv5F1B86SG3du0XtvkhshZ8nRTfPIwMZexMylEmk4%2FSJ5eWthqFUkOyOJxESEk%2FDwYqYXkSRWkU7%2F2g8n%2Fu5pMrepI6nYYROJ0Oblj5qoaBnGh98i5w%2BsIBO7ViNuJgJtObyReAIisfYn7WadIYncraoskp4YQa4dWEWG1zMlhlbupHLbSWQzfaYhl8%2BSI5t%2FJYPaVCSlbRyIR92OZOSWR5pPzItS8Yyc%2B2scaRfgR2q0HUrmbTxBzl%2B9Qe7Qsrx16wYJuXSc7F4%2BgXSr50FKlW9B%2Bqy4TBRqJclQRJOHx9aQqR1diKFxaVKpwRCyYt8pcu7MUbJ94c%2Bkax0PYmnnRKp8N4Asu5ik%2FbQPgyvXR8eXk2Ft3Yh7%2Fbbkp4GDSEsPHxLYfjo5HBpPMlTaCz%2BQsP2LSN%2Fyuc%2FZiFTvOpUci9O%2B%2BBVxb8MY8l2ZsqTbjJ0kVJtXfJQkJSaEbBn1P1LXtRLp2K8f6fJddeJUqQsZ88clEpGcRWv4RyL2EBn7XRVSb%2FBKcvSZNu9dxBwgI9v4Ef1c26k8nPx5Mlz7Ikc2SU%2BKJGGX%2FyT9m1Uh1oYmpNL3I8iSv0%2BRC1cukdO7VtPPqkZ8XOyIs2tjMnnTOfI8Q3vrSxTk%2BrqppHPdSqRmi%2F5k5pr95PS1m%2BTmbc52blHbOUMOrp9OejfwIe5O5Ujv1afJQ2oKWSlx5MX9v8mkZlWJi5EhcW06hMzacIKcPXeS7Pl9Gulcx5uUdnIkpf36kTXnQkmxrEeVRmLu7CSDa1UgZXy7ksmju5G6frbEtdsssvNaJElXFtN4Xmwg%2F%2FO1J5Lc5xy4kFx4qGmdvi6erSI1LQ2J28SzJDK5OD3D56PIgoGos0nKi32ki6W2EMEjQrkD6bA9lqgzk0nYxv8RM31j0nJFJMnS3FBUwaAmmUlPyIGfaxJXR1vi23oJOfjoBYlPziDZL1sFNcnOSiOJz2%2BSU0t%2FIJ7VFpNQ7jVVBol%2FsIcMq%2B5KHB0qkHbLDpHHLxJISkb2qwaF%2Ft1ZqYnk6bVj5LcevqRO0KOP19h8ZoouGHKhgoeWTXxkGAm9E0IuHttOFo%2FpTALc9LVlok18Q%2BJZfwjZH6u9jT6h5IdHyYpulgRGHqTm4F0kPC2TKLMySXpKPHl%2BeTtZ8IMH4QkNiFezwWRHnoY2M%2Bo62T2zNfFyr0wa9V5FTj%2BIIHHJ9F7Vq6euVlFxkBRH7hxYSUZ0b0o6rbytFVK0nJ%2BfIutG%2BFFB6khqtltMQtIySGZmBklJiCbXd%2F9GelcREIF%2BWdJy2HYSprnnw8nOSCCPjiwkQ5vZEj1DD1Kn7XSy%2FyOIBQ4mGIoLFQ2RIWT9oDakmo2c6Ff4noz848LHFQscH1UwcFCxnnWRzGtfg9hAQGqOWUNOUVWQpcwiGakKEv3sFJnfKYA4ScXEqNZYsv3CC2qlWtKekF0zupA6Ls4kcMAisutiGIlNSidZb9hOZmo8ibyzlgys2YqMCz5JnqRpX8t%2BSjb3qEXcZSBl%2BqwkRx4kaWwnVRFLnocEk%2B5VXYicLyfVJ%2BwiVyOVOTd9KBrRsIUM9vclzka6xL7DbLL9ykcQCxxMMPxnKfqcEY8PqXFl%2FDy4hjaDIDstCkd%2BWYbL6Q%2Fw%2B5wjyLLtjBHtzbW%2BDkVDnaFA6LZh6LHqKmL1W2DqvM6o6WgFIz0x%2BC%2FnG3ngC6UwsLCFY3kPGFmYQo%2BnQlrcPWz9uTd%2Bv5kI45ZTMbtTDThYGUJXzH81VUn%2FbqHMAJZ2DihXxgjmJrrf0JqnDvgiPfq87ODk7o3y1Rqhy7DZWL9rP3Yu7Qe%2FXOdyVRIS4u%2Fh5jPt79zz5gsgEgs0z48vkkAqFUEgFEGia4RSZf1QpWF9lFcmIer5XVx7pF30SLqPczvnYMiiEEg8m2P4qO9QydkSxnr03jzeRzwdAcRyY9g42KKctzls7cy0ToU5nysUcjVIRxNATCoVQyQSQ9fQDGV8fFClsheyUxOQEPEUcTl7Rz8Yvk4mYiKjcOtyBFISnyA0IYwm1efxWUgIxZkdQfn7u2jTpLlB2Hr6LqJTC9rHxgVUC8WFXYsx7qc2CPTzQzlPT3jSVLZiRdRo3h69J63ArvOPkJCpAtKe4ereNZiTz%2Bflpsm%2F%2Fo7dV54i8XPFN8gXAfgpj3E%2F8jFuRyQj%2BeEtxEZFI0X9X%2FdZ4EGH2omIT%2B2G%2FiYQSyCWiCEUCCGW6cPMpjKaNCwLJ3sBEi5dw4PwKO2SYTIurJqGxcF%2FI7J8R%2FTuRsvS1xYmcgmEb9iOSGYEC1c3WJuUgbOxHvS0sZJ5fDHEQvq5tP7yxWJIxfTvoLYj0zeBtWdd1HOzhKUoGaHh0UhKK2qQ%2F3egI4XyyWXcSHiGsIRUvLgQgpiUNCh5n8N4EnFt50LMmpx%2F%2Fc1Jc7Dm8DXE0O%2FJqY53kvUcN%2FatxJT%2B7dCgrh%2FKlvXS2I6npx8CApqj25DpWHv%2BLqJSsqGmb%2FTo0K%2BYOSW%2Fz8tNc7Hp0hMkKlUFf24J5b1KV0ckh0PHweikXTynI3wk3FyEGX2mYVmoGgEDB6Ki%2FD3MmWQhJfYkfp3wD6JVclQf0B%2F17OXvDrHK14WZdwcsm1YXxlRoRJ5cgCkHYgCD6ujfpzbsaMf0Lrj173IdFmFSrQ%2F1ICghKBWIuHYMW1adxlNtVg60IRNIIDe2hJ1LJTRs3hnDBtTUOqaqoVZnI7OI8Yl4tPETyfQgo02iRKILI2Nu31QGnt%2B6hJ1LdiBa1xrlW7WDv60ehAVUB5ldZTRoPwa9KhtpcwqGq6yaRL%2BDiasXrF%2BG3PsAlFG4vCsYM2fth7r2OPy5fhrayM9i6cyZWH01VnvRJ0RuA58ajdHEQ4TwYyuwbN0R3Ewwh39gS3zXqiGqOvPx5FAQRndqivpdx2DZsbdjsmdF38LeeQPRrnk3TNmVALumQzFz5e9Yt3kzNm%2FegD8WzUC%2F6qaIoI3cgFGzsfzgQ6RJLDR%2BII0r6SH%2B2gYsW7EHV1%2FI4FW3GZrVrwYvWSwub5mNvm3roc2Qefj7Xpr20z4vGY%2F2YvGcX7HhmRf6LN6AJd1dELr2Fyz%2B8xBy9WnJRAhdOhgSimhNtrCEXC%2Bnvcu%2Buw2%2F7zuBM1FuqNuwLip6WEAiKMB4dNzw%2FZQf0bC6C%2FSL0uTy6QCP2rdabQxfdypEDIt3IkPEwWkYMG0dIiuNwJ%2B7V%2BBH69tYOPwXbL8YhuRPLjTlcK3VFm0DS%2BHugW0IXrYKZ5NM4F2nBdq0a40G5Uoh6dLvmNG7NapV7ITlF57ls6MjAecXDkCjGs0x5K8wmNcdgOm%2FrcGGjZuo7WzGut%2FnYmwPD2ScDsaEjj%2Fgt3MRUCgB68od0aGtN5L%2B2Yw%2FgpZhd5gBXKq3RJuW9VHRRo0b%2B5dgZPtAVKk1EUciFEU%2Be6mk8H5ykCeA1Kw6Bg%2BqrM0gUGbE4MCuo0iTt8aA9vbvFU%2BdZKUh8fgabApXQSr3R5t6zpAUVPnpaFcks4SHqzGUyfE48ddWvFDrwSCgFeo4SwocefAEdJRqWQYuJu%2FhWJIWhYebB8LLy%2BsjpAA0%2FW4pND6jnxJVKiJCL2L732fxzkgD9DmKjSxg4%2BECM02GDHpSGzi9y4vyDbLjovEs5BJC9Bxg69kc9V3oM017jkd3DmLXHTWsSrmgVoADJIXULh2JAYwsHWGrX4QyUcbj9tWz%2BPtIAu1oG6H7%2F6rC5P1q7yu0YmHGlK1IKdsOP08ZSA2%2BO%2Fr164kG2Xsxd%2FJkrDj7iUUDrY96xjYo42oLK6phE7P1YOpSHpWr%2BsLTtzLq%2Fm8gJo76CY29Vbix909s274FJ%2FN4g6Y%2FOoLgmUMwfE0ozOsPwqRxvfFdYCX4%2BnjCQzNC8oZvpVpo9uN4jO%2FTFjWcebTxEtMyEUFmZAU3dyeY004jMZEPM9syqBRQARWq1kazPpMx6seGqCB7hFMb%2FsGxI5cRpf3Mz0Xm431YPHs2Vt2wR7u%2BA9CvYwt0HjkBP9W3RMji8ZgTfAB3S6xoiMbNi08QHa6Gb6NKKONiBSmycf3oEdy6%2BwSZrgGoWNoJloUZD%2FRg7W4PcyrWizKjm3RqE%2F6%2BEw5%2B7V7oWscLjgYfajxULByajgFTVuBu6X6YMagrWgR%2Bj8nLRqOe5CJm952ETecfQ%2FFJRQMfMsNScKzgCQduoJOogIG3PypWKIeyXj6o0qgTxq6Yj%2F%2BVIoh9uAcTf9mLsMjkVyP%2B1Hv4c1A79J6zD8LGYzF1Yj%2B0b1AF5Tyo3XCJ2o9PRX%2FUbTcc84KHoQK1TUPasenQRybWt4CtWyV4GiqRmZIIMf25ul9ZlPWtggYdhmLx8v5wSYvF4%2FNLsGDPCyjS3jvO5X%2Ba96w1dJQqooqqwyC01EZyIoQgi5ZEpWHDULMoDX8esjMzcf%2F0MSRTISI094CXdVFc37kzKbKRnn4f%2F55IBk8khoW7J6yL8tHcbouiqPFcJEawrtMfK5cswZLipqVzaaP%2BMbzIC0GtQnZaDGLiHuF5AX2eOjUFKU8fQXOJXilYeASiWqGCQY20uJvY%2B%2BdMTA1%2BDJ9WvTFpdCuUpiP9rMQ4hN%2B7iTCVHnRltBPUL1pZ8t5VJuokRLy4igNH%2FsH2dQsxrHdvDF99G%2B7dF2EVHVXXceXmNz4AKhau7M4RC0ne3%2BHnyT1RzcEIMqkB7Kt1pKKhLxqSg5g%2FczJWnvvEooF%2Bd4FQAJGQfhMdagNiCSQSbumHm0Y2g4N%2FTVSvXAkuVJQ%2FehKKB7mu9zH%2FYsua%2BfhlczRK1%2F0fevdsAl97MxjIhHnONKDPls%2BJAws4l7aGj7clLCyMcgyeXiMQ5pwrwjW%2BIpFI87kisRRyEytUrFIBHmWcoEyMRGx0FJIyuZs%2BDxqxMCtHLPyvz0D0aeEDS7kUehYeaD50PH5qYoPbQROxgIqGeyVMNGQnh%2BL4gnGYt%2Fk2hE1GYUKPJqhsLaUl9Rw3L0Uh6oUS%2BqUsYKyvW4SBF20H%2BZzt5N%2BgRd2%2BjrPHj%2BDAliBM6NsWXWdegXXHWVg1fxCaeFlA%2BoF6gRMLA%2FOIhUAvc8jEejBza4JxQVQ06F3Fr%2F2nYAsVDQUFdyo%2B9PuLxRDTXpz7KgKpFBJajzVLP3qGsHKohe9au8PYUIXoo%2F%2FiniIFOdU4AUen98evG%2F8FaTEKY7sEws%2FVCoYa29FcoIGnw72PKay9PFFKzx2u5sKX8SR4fAmkQmpf9Ge%2BREq%2FvxBCkQS6huawL98MzUrrQsZLxK0n0chSftF1vY9OgdWG23CZnPLGpArt3HXN6mBYv9xITiJI5a3Qv5vrG%2BcREKjUcQgr4HRLtVqNuGgFfeq0sKydYVmUPkaDmr53PGLorQJaitZOFh%2FWeRQGHY1JTUrT0VcAAoqb%2FLm15VKf%2FsyGrDRkxNzCxbBL2PDXhfxjLKiS8OT2Gaxffw5KOuos5eKDVj82gdU7nn%2Fq82vYNqUp%2FP0ro1qLodgYWR3DgtZi9aweqO4g14xwVJnpSE%2BMoWMlakxiY5gVdwcU1xBwTrnJGSACOSzMpUh5dBSrFk7E2BmrceTpBzgwKKOpWFhNxcI2KLy4mYUcsZAzmONR4zekoqET%2Bvfvh4bgRMNUrPog0aDSNBQZxexoeRoBwZ3zQW1OTxdyfa72pODW0aPYv%2BEY0u194N%2BwAXws6RX59xsa9L1aoWO7HmjhUbR4lZwHEPdI%2BNZ0pGvvCLP3mTYsBpxYWDJ7NlZet0Hb3gPRtyUVC3panwXa7uhZeqL58PHo2aQUbi%2BjouH3g59XNGSkIEOZSev4e5B8C%2Bsn9Udr%2FwqoVP0HBN23xf8WrMGKGf3QwNMKUk3BJSExJRMZtKk1K2VIy7r4BzgLaPubmZ6ONJ4hLEylyHhyHrsWjMTQyX%2FgSGhsznbF94QTC4OoWLjj1BvTB3XRiAWpUNuF6MioaGiKsUFjtKJhKrZcePJhoiE1EWkqJbWi4iCm9iIGn1MBdnYwoGKC6yOUV1di1q6ruJNWBe3b14G7jRwF7v7U8cWA3wciwM4YogJs7CV8AiXXZRJzBPjaQML5gX1F5Puo1OoMhN1%2FAJUqGxfPXHpjHYZrWI3g3WsoWtCegk%2BVnc%2BQYahvkOfB0IZenZ6AqAeXcOHlEqiSNqKXcfh8JPJqEBXnSZKthPphaM5ot0hwk0sqqOh%2FStowP3xU0GlYxYSOAvl0JMaNxoqb%2BJ8h7FhmWhqinz1GctQN7J3bAy07j8EfJ8MQy0V2VKuQHnsPx9dOxrABk7DjoZIaeQ10GTsDP%2FjK3ym6JOZ2KFO5FpwTriDk8gOEhwPeNcvB2crw5bIDN9NE6PvTgkd6Zizi3tCZ748MJnRUWa1OXQQ2ao0fh%2F6C1ctnY2AgD2fX%2F4rZU37B7tedNAqGioWre3JmFhSe%2F8PIqb2o2MkVC7loRUP1zhhARUN99X78%2Bt6igYqF1Cd4cO8u7j7WZtEOIez5Y1y5GY3U9zjIKuvpYzx4eBcPjMvB27s6KtnSP1ZxC5dunMXJJ0K4ubmhoo9VoQ0ZX9cClpbWsNAtqGXUkhmOU8f%2BxembOqjXvBla1fYs2hp5MckRC3OwIoSKhT6D0a9VHrGQi1Y0tBgxEb2alsKtJRM%2Bm2jIzkhG%2BM1LeBYVrj2nhfL4Ou7TdusFta13TjzLnFC3jjMtozjcun4Wd4gpHN3LwtPaCLLczpbzIaJtGteqRdEBVGrqh3Tnr2Po7A6%2F6jVRt35jdBgwC0E712B4gBESj8xG36HBOHIj6r3W1zViYepK3KZiYdrgbqjPzVK8%2FPu1UNFg7t5UO9NwJWem4T1FgzItEY8vn8GLZMUrYXb7X4Q8eYGE93IkDMeFY4%2BRkiRAwPe14GjKBRJU4tyOHbj%2FIhGkfCPUsDOFXkFKW4MBnMo7wliaIzgKI2HvUqx9qoR12zHo628B%2Fa8s2vFrJa7KTMPhId7wKR%2BAVvPvgSjTEb66I8qX80PV8ee0V1F4QuhaNESv9jYQi2uiWzc32rxrUaYi4cBglK1YHY06zMfdlyVMOyvFTSxvXwvVa9XG1Au0IePzYelsS%2B0lG9mJ9xEar720UAQQCizgbENvzVIi8cEjJGhf%2BdYRGFihTM3v0bGCOVQRt3Fm%2BzKM6hKI6n600ynrg4rVmqDrqNU4FSVHwE8L8MeWVRjWqDSMChhF8kVGcKnaGt0H90U5nXBcPrUJs5ZcRN7jRCQSPRgbc1FvkpBEO8wn%2Bc4sZSD82l781r8T%2Bowci7Fjx2L0sP7oO2Is5h2hKuQ1uF0SEujp60Nf3xDGZqXg4lcfjeu3RC1pFC78ex57jt7TXlsEUmMREZkG3SqdMWZKz3zEQi6vRMPAocPRzoWHJ6FU5GpfLZDUe9gbNBz1KjVC79kbceVlz6LCi3PbMatrDdTtORErLxYWW1MFxdMT%2BH3JAqw5qkLDH%2FtiIL3Xhgr09IhnCHsSikhiDCO5JUx1i9CM8biln5wTNN9CHYuHDy%2Fh4NE92LB8Onr3GIBfT%2FHRZMQSzBvVDhVs8zvp9OOT8OwBonTLodOgYfmLhVzyiIaBHXwhSX2GiITid7AF8WDTePRuXhl1eq3AoZCEV51W7GkEjeuC2n5dsWDPlfx9hvhSmFfqhpG9G6OKuwT3Ns9F8L5%2Fcee1AEvGKGUmgVyXWg81nERFSv6zGA%2B3Y%2FzooegzaITGdsaOHYhu3w1B8NFbiH3jBm6XhK6enNqOPoyo7di7BKDLDw1hb8lD%2BPF1OHrzMWKK%2FNgUeHYrFLq1hmDWsG5okJ9YyEUjGppR0TABre3jEUE755QizrSFLOqI1vX80WDY37gdnvbqOUfuw4QezeFfrg%2FW33peqC0qE29h99g%2BmHUoFaX7zMecjhVhry%2Bg9ekRzh%2BPpSJCBSMHW5iIiyICuKUf7vRM7a9v8PwyFe9Hj2D%2FhgUY2qURuiyJR4MZ67BuVhdUsJQV6PRdEnmt1HVEElQash7rN2zCjsOXcD0kBFeO78KGv9YguJeX9ioOHgQSc9SYsgP7D%2FyK%2F%2BUNu8d54lcZig0bt2DbriO4dP06rmtTyNWLOLZrC%2F5atRQ%2FeHCVWgTnypUgpFo3PfM8dp8tqmIQUKHiDL%2BKtAXNSEX6hb04zxSDBr7MDC71%2BmH2xoM4d%2BkU9m1ajilD%2BqF3z5%2Fw40%2B9MGD4JCzZcACHj%2B%2FFikmdUcfTDqaywroEHoRyO1Rt8j2G9K8MEn4Oh7f8hmWnXw3tdAxNYerig9K0LCOjw3HuypsCgEMEM9cAfDd8Ivo29ITs3lYEbbmAp2ofNPPLcb8sCJ7ACKZWjihtR5CVnIy4FzGviZYCkTuhWrv%2BmDGpG%2Fwdjd8hFnLRioaq7TFgxCj0b1y6aEtJUnsEtB6C5Ru3Yc%2Fhk7gQ8qruXzl7Eodp3V89qQ9aeuQe5fY68Tf3YsnwRqhSpTICeyzBFb12mLJqFeYNb4XyVrq01nMjsCRkpCRSSUE7A5k%2BDPN%2Fq6LDHSWcrUR2UhYEesYw08%2FG85CdWDhjAqat2IPLUZ%2FHgcGkfEcMGTESfZt6vVss5KIVDY0GTsLIn1qhotWnXTOxDeyFsYs2YeueYzhz4drLMr1%2B7RyO7t%2BFrRunokM1Nxhqr38TnsQIXi2HYEDjKnDFE%2ByeGYz9Z2%2FhVWtHRb47rdsmOlDfuYDbkS8Qm9%2BUhU1t9Oo7GCMHVoPw9klsWbYOEQ7l4V7aCYaF9nxC6Lt7w9bIGNKMx3gUk%2Fwevil68Oo4BdMHdkPdMgWIhVw0oqEhBv%2B2ED3ruYFqoSLh0m4K5gVvwrZ%2FzuDi5ZBXz%2FnqGRzYvR2bN4xGQyfz%2FG0x8SIW9PoeTSqXg1%2BtQdipqovhG7dixc%2FtUdHGQLs1NR6xChU4t4JSDqY528aLCbccm5pK%2ByCBOWxpPxh%2F%2FTDWT%2B2PftP%2Bxg1FxvstX5UAXit5zgFN384b3t5vJC9PeNi80TLpCKBrVw5VKzi9PmXJ40NgaP%2F2e%2BRJXh5lYE3fjifUg0nVPhjqQ5CZFIMj01cjRPs2BcODxMAMVXsNgjdJR3zkUcz847r2tW8cbieJngmsHN3hXa4yagY2w%2Ffdu6O7JnVFx%2FatEVitInzKuNAKLi96zAHaSEutyiOwwxD83NIE0Vf3Yd2vk7DxifZ1aSk4etRAs%2FJ8pIY%2Bwu1de3FH%2B9IrdCCSGcLCwQVONqYw0k1BYroaPF0zmOsXpdGnHVt2GhWX9OP05TC3tng1s1UYfAn0TSxgbVnUcM9UNIjlMDG3hKWRpEjTkVy8fUNu%2BSafOp%2BbPJxsYPaOWQF9Jx%2BUdS8Nw8gruHzuIVKVcnhX9YKdmRzcLjwOolZrEucUmpyp0Gz1Kh76sHH0RfU69dCgaXsMnLAYfy0aimZl4rF%2F0TjMWbIW%2F36GbRJCPVNYWljAuKjhnml91DWmZWNmDL3ch%2FOJkBjbwNEt%2F%2FLMSc6wNCx4t4KQCtZGA4ajbY3y0Ivei9mz1%2BPAhXCtI54Qro2bo4yLC2SZV7DzxG3ce56Pjw4VHja2dnCgdUiPZCM1IRk8E0PI9Qr2YXlJeiKSsjOhFLjCwdgA8iJvS%2BZDZmaDUqYGkBQmFnKhosHExh7mBlLaWWvzCkFm4QzXMvk939zkCJN3LQ3IPdCmuR3iosNw8%2Fpp3JG5o7y3B1xoGyd86c2ohopzzKM8C49DVlbxvCQ4TD19Ua1mLdRt0BRdRyzBX4d%2BR0%2FrRNzdNhrt%2BmzE3di0dy9XlUCKZ2l0dCLI61r6vlCjl1mUR48xfeGUnYrwkKX4qec2vIwfVAA8oT6sKnTHyF6OdHT0BJeX9kW%2FnUW589uBR8WDUCzVTuvnJLmeDGKBTtEa5Tehna5pmTr4rscQdLBN0uyBXjFpIc5xEw08MSy9A9Dsp54ox3%2BOiyfW45ffzuQZRb0ON0VOqw%2F3k%2BZfkUh9hod0BHYk1BhuruXRqIZD0TryEoJAVgp%2BLX5Apw5t4JJ9B3t3bsUfO%2B4gbyQEPSoG9fXNqHKIQUxCBCLydd9Jxp1%2FgjFz0I8YOHocxo0bh9GDeqLnhIXYePlNfwwqMLndEVz9MDCCmaUdPGq2RetqAfBUh%2BHQ4fM4e5XZVfHhQ9e2BvoO%2Fw7VKxoh%2FuxyjF%2ByA6fu5qxNiO2bo0%2FX2ijvJsTDddOwYucp3E14R1fDrS1xS0yan7WpUNIRcvgYwp9HwsC%2FJWqWcYB5ceKY%2FNfg68KmznDMHlAV9tQ8ri0dhiWnwhD92rKLGRxLCSGmyi7h7hMkZWTm35nfWIWuvQZg2M%2BjNbYzblw%2FdGgxHDvux4KOb16D2yWhsR2ajLkAebR97DeoAXT5Cjzeswz7HyUhrfi65D%2FDp5XmRUBHaACH%2BsOwfFE7lE5%2FiqsbhqF5za6Y%2Fe%2BzN5xyCNRZiXh0dC3G95%2BMQ9E6VPk7o9HQpfi1jTNSH13AX0Nbom6PX3H2%2BRvuPESFjPgHOPTnRAyefuSdhxsx8iEjDVlxudHoaHmJDFA6oDW6DekDbxKOc0e2YnHwec3rAj0bVGnTGxOmdIBz0nnsmDcCfcesxY34t4fB3CBZ%2BR6jY2XiE5zYEIRf5u5DZpl6VL3%2FiDq2BY3pSiK0Tpt6okXn9ujQ1g3pd%2Fdg0%2Bb12BHy6iQjvqU9rG1cYENlxP1Hz3DrXn4r5zI4VG2GLkNGomtFA8Sf34Cgfc%2FAN%2FKEv3vh21d4IivY2lnB2pwgLTYesbGJr4kWRlFRITkhE5m5e%2FG5Ex8r%2FoBRvRujqmMWHu%2BYi%2BCDF3Cb0wwCOTxajMDU3m1RziABu2YMxJA5f%2BHMszzOfy%2Fhct4hJvJDGYeQP8Zj%2FPIjeKDbDH36tkZlN5Oief2XIHhSM1T54ReMrGUHg%2BQ7%2BGvYQpwIi8pTdx1QvpwuZLo8qK8cwyVFMlLz86J0bo4Jo4ZhYE9vxO3dgjVLNyKzZgt4mxsUYXZSBKNylWEvkUCQdge3orI0SyBfC19cMHC7EIQG9qjeeTa2HF2PCYGGeHZmK%2BZ0CoRfuXKoVqcO6tSpjZo1%2FVG%2BSj38sOwSzOu3RiVjeitfDCPnWug%2BZzMVA2NQRx6Gk5tmomOgH8qVq0bvo%2FfWroma%2FhUQ0KAXgkPMUa9FRRQtruC3iTIxHJf%2Fno%2BRk%2Bdg8ZYoKhie4eahX9Gvzxys3BqCODqcEcptUbVZBwzuXxWIuIxd8%2Fqg44AFOBRGIDV1R%2BCPU7Fm8xIMCVDh8sqf0ZqWQe2WPTFu%2Fgqs37IZK6b0x4ARExB8zQj%2BdeuiflX7nHXJ9EhcO7Mfa7aF0PbwGc7vm4G2ftVRk9uWWqsNhq55AOs247Bw%2BSz0rO0A3a9rx1IOPBHkLg3QqWs3dKomQeiB1QheHYzDuU6k%2Bm6oUM4XAa46SLx0CddPn0XuqtAr%2BJAamqOUQ2k4WetBKkhCYpYAErmxZsq%2FcDKRlUUTFXRyM2OYmRmh%2BBv9vgUicHnraszpPQ5%2FnAnBCzrIubF2IWaMHojFe67gWSLt5MXG8G41DAMaV4KH4Bn2%2FNIPffotwL7r0cjWd0DVbtPx5%2FplGNbAHKGbJqJzYA3Ubd0d%2FaeswOYt67Fi%2Fjj0bPkz%2FrybBftGndGwrDPMNYWjxJNDwdh46Q6e0B7y4dqx6N62DmrUqYKKVeqi%2B%2BKzENcYiaAV09C%2FiTssiuIsWwIRGXqi%2FdRpaO5aCuqwtRg2aiuuP0ui0k3zKnw7doGLiQmE6acQvDcUcYp8vAxk5nB2dIC9szXE6alISkiByNoScrGwaB1maiwS1CqohT5wNxUVeUmmJJD%2F8dZfBAJ1dgYUkeEIj41DXFQ4Htx9hnSBADp8AXRLlYabtQWMjIxgbmkBY1nebZxqKNMTERn%2BArFxsYgKf6hZAxQI%2BOALdWFd2hXWFkb0XgtYmBsh760liaIeb10cSHYW0pLjEEONJD0lnTZDnDDj4uAbwJDbrWAi0zjfQZWB5PgIhEUkQ83L6YwsrCxgoNlGRKDKSoMiJhKR0fS9Ip%2FjRXgCsmRU3cv0oadnBCtzPYhFEnoffV9DIxhya9dqJdIUMXgREYs0jR3zoMPFY6Bvyc1I6Ih1YWBkDBMjecFhc0sQSVf%2FwNwpP2PqJV%2F0HDUVc%2FtVAhctQZX%2BAmf%2FmolpUxfjRIo32gwai9Ej2sFTlyArNgSb503B1Pn7EOXaEgMmjMGItmWhn%2FOWr6G4EIRpk8dj7q2qGDx%2BEqb2KA%2BNN1LoNkyZPAkT14vRY%2BJETBrfDC9Pdk64hNUzJmPykitw%2B2EcJo39Cf7vCNLx8Y%2B3%2Fsy8z%2FHWhaJEanwiFIpEJKVTwZXNzQIIIdGVQt%2FYDEZybjmQq7cqpEY9R0ScgtZzHkS6ZrC0MoG%2BLKdDItlpSIiJQkx0LGKjnuBRVCp9ZwnkUjEMzExhoGsAqUxK7UgPRrTzk8tEEPAIMhWReBEVj5SMnO2H3NH%2BOjRfrSLQEdK%2FwcgUpsb6Gj%2BEr8N6%2FsXoCl2x%2FMpT1PnjPOa38YUtF6VenYaI%2FePQvO%2FvuBItgUefIOwc1QDOnPelMgFnfuuAjjOPIYJXGr2CtmFCI1eYSvN7Iqcw1L0DVt2LRpNNN7GguQssNOIsHGvqB2DE8TA4TTuLHX38UEqeK8BScXZiLbRdcBXZ1YNwYGUHeFvKXgsK9ZKv5njrL46KKDPTSXJiIknkkkJBktOz8pxe%2BW40p7mlJ%2BfcR5MiKZmkZ%2BU5vbIE8%2F6nVf4HoK2VMjONpChyyzKZpKTRssxzAt%2B3jOLKGjK%2BpTmBYRXSefo%2FecpVRdKjLpM%2Ff25F3MRCIvf8jozbeIukcC%2BpM4niyQmydFAj4mwgJybujcig3%2F4hoYq3T7yL%2FXcZGdzAlMC%2BGRm86jJJ1uaTh1vJ5M5eBPwKpMeUXST3oMaMyBCyeUoXUtHKing2Gkp%2BP%2FOcpBVwkN6nO63yM%2FE%2Bp1V%2Bbrjj9bOo7SQrtO2ZgtpOBqFC5Ktoz4rPGTKqfGliRMe9deeeJ48S8jyV9EhyYm4j4mAmJjpG7mTAzgckKj3npcz4m%2BTv0Q2JtaGMGNr6kv%2FNP0AeJGa8OjX0JUfIEDdrIoeItN90n0Rq7yfkOfk90J6YCkEqzTpLwpO0BpIZSf6d15FUtJMRA5%2BeZMnJcJKcVUBJlcDTKvmTKFrt8B%2BCc4gTQCThIt3RJBZDJHj3Xti8cDs9%2BAIu1G3OvWIxVd%2F8r0NRZ8Q9w9WDO3BTXA8d2njmjBT%2F62icG4UQaaIWcmUp0oRCfldI22%2BF9Be3cGJ3MBYEbcE%2Fx%2B4jNjkWMXQ0eedBOiA2go2jCXRlJnC0FiIl9g5OnLqI61cu4WGyFNYunnAqZQXXCv7w97GA6tEZ7N%2B2DRu27sY%2FJ68iLDYW4feu4OimJQhatxcXogzhXaMJWjSsCi8bOfjJoTiw%2BQ8EbziO54pYhN25gAPbtmBd8AoErfkbZyP0Uem7vhg6sCPqeVlBr4DN5HE3j%2BLYifsQ%2BtRGzeruJW%2B5L%2F0Rju47hnB5eVT3Lw%2FH%2FKZpvhS5tiMSa9sz2g4KcwLAfdvWE4YTQWvw57IgbDx3B1HpSkTduI%2Bn1KaS5e5wNNeHRKoHqzJe0L1xAJfuPMSVk0dxJdQQbhUdYWlWCo5la6BRbTeoHp7GP7v%2Bxra167D7zE3cCI1DVtwtHNi%2BBkum%2Fo6j8TK41eIOl2oIXysZRDpZuLd1Iqau%2FRehiizE3jyJ%2Ffu3Y9PaIPy2aA3%2BuZsB9%2BajMG38D2joYwW5qIC%2BJ%2Bkq1qw8iJSKndDd3%2FqT7%2Fb5GPyHliQYhfE5liQYnwd1VhqSFPGI45Z%2B0nL2a%2BsIaccgM4KxsSGMDLRbOZXJVEhEIiI2FWodEfSMzWFpbkIbF64ZIlCmKxAXFYXomBhEPn%2BOqPg0QKZHG0x9GBkawtSINnJiKaT63FKOAeRSAXjcKbMxkYiKSUSGZnFXJ2fpB1zEQR0IJHIYmZrC2EAGcSG7oNiSBOPzk4mkyDgoUhRITMvKiRYMEXRpfTUwsYKxnlgb7jkbimcPEZ6QgSw1D2J9a9jaGkGXDlg01kNtK%2FrFC8TExiE24hEeRCshEMmgzy39WJhDX0LtSCaFXK4PYzNTyMU5SzzpcWEIi0hCZjYXn5N2olwUX2o5KhUBX6wLQxNLmJvoUnFRiKwrgUsSTDCUIJhgYLwLQlSaw9wys5SakOnclmUhd6iUSEDFQCENVzFggoFR4uFsJysD6ZnZ0GgPKie4g%2BBEIiEVHp%2FOdkqiYPiK%2FDcZjG8XTcwNiQx6%2BgYwMKBJXxcyifCTigUG46uACzYo5g5309qOgT61HdGnFQslFCYYGAwGg8FgFAoTDAwGg8FgMAqFCQYGg8FgMBiFwgQDg8FgMBiMQmGCgcFgMBgMRqEwwVDSUKUhOeIqTh8%2FjuO56dRZXLkXqQnjzGB8KtJiH%2BPWpTz1jqZTN8MQnqK9oAST%2BPAerp58%2FbtdexgJRc750wxG8ch6jhtnT%2BFEnvp1%2FMw1xGUpNbEcSgosDkMJQvHoPNaNaY5pZ41hZSHPCezDIbOGZ4O%2BmD06EGbaLAbjY%2FPsWBBWrFqNAw%2B0GZSslHjEJ9ii5cjRGDa4Puy1%2BSWGuOOY%2B%2FMvWHP0KXiGckjznM3l23E8%2BnVoBh9mVIziErkTw3osxrmYpFcDu2wFXoTHw3HIXuwYUAGmJeBAMCYYShCqzFTEvwhFRLI2IxcdEaSGlnCwMcTXduAz478Dd7hRVFQ0EjO0GS%2BRwsiSO9hNHyJtTokhOxnR4VGIUaRpTzR8ha6ZLSxNuciA2gwG40PJiseThxFIzs45GCwvEnNnOJnLSkTcByYYGAwGg8FgFArzYWAwGAwGg1EoTDAwGAwGg8EoFCYYGAwGg8FgFAoTDAwGg8FgMAqFCQYGg8FgMBiFwgQDg8FgMBiMQmGCgcFgMBgMRqEwwcBgMBgMBqNQmGBgMBgMBoNRCMD%2FAcK%2BCBDC%2BX8wAAAAAElFTkSuQmCC%3B%22%20vertex%3D%221%22%20parent%3D%221%22%3E%3CmxGeometry%20x%3D%22286%22%20y%3D%22200%22%20width%3D%22277.41%22%20height%3D%2245%22%20as%3D%22geometry%22%2F%3E%3C%2FmxCell%3E%3C%2Froot%3E%3C%2FmxGraphModel%3E&lt;/span&gt;" style="rounded=1;whiteSpace=wrap;html=1;" parent="1" vertex="1">
                    <mxGeometry x="492.40999999999997" y="215" width="120" height="60" as="geometry"/>
                </mxCell>
                <mxCell id="44" value="" style="edgeStyle=none;html=1;" edge="1" parent="1" source="28" target="32">
                    <mxGeometry relative="1" as="geometry"/>
                </mxCell>
                <mxCell id="28" value="" style="shape=image;verticalLabelPosition=bottom;labelBackgroundColor=default;verticalAlign=top;aspect=fixed;imageAspect=0;image=data:image/png,iVBORw0KGgoAAAANSUhEUgAAAgwAAABVCAYAAAAlmLwZAAAAAXNSR0IArs4c6QAAAARnQU1BAACxjwv8YQUAAAAJcEhZcwAADsMAAA7DAcdvqGQAADt6SURBVHhe7Z0FXJTJG8d/y/bC0ikNEhKCgQG2Yrf+Pc/2vLM7zu4489SzMPC8O7vPOrs9O7ALFRXpWBqW3fnPuyyKioBiHDrfj/MRZt93l31nnpnfzDzzDI9QwGAwGAwGg1EAOtr/GQwGg8FgMN4JEwwMBoPBYDAKhQkGBoPBYDAYhcIEA4PBYDAYjEJhgoHBYDAYDEahMMHAYDAYDAajUJhgYDAYDAaDUShMMDAYDAaDwSgUJhgYDAaDwWAUChMMDAaDwWAwCoUJBgaDwWAwGIXCBAODwWAwGIxCYYKBwWAwGAxGoTDBwGAwGAwGo1CYYGAwGAwGg1EoTDAwGAwGg8EoFCYYGAwGg8H4hsgMP40/Vx7Ek6xsqLV5RYEJBgaDwWAwvnoyEXt3J8a0KgtP/7YYMn4XwjKzQbSvFgUmGBgMBoPB+Jq5vhB1vLxRf+QJWNarBFFMAhIT05D9PmqBwgQDg8FgMBhfM46tMX/jHuwMGofugWUhE3xY188EA4PBYDAYXzN61vDycIGdlQnkEiF42uz3hQkGBoPBYDC+Zng64Ot8qEx4BY9QtD8z/uOoVUpkJCciVanNyEWHD6FEDkNdoTaDwfj4ZGemIi01DZkqbcZLBBDryqArE4OvzSk5ZCM9OQXpGUq8+bUEUjn0pBIIS96XYvznyEJKfDIyVOq3nAxFetyoXwcfoT8vGk+Xwc9rKK5kfY+D0UtRS19SZLtlgqEEoXh0CZvHtcX0f7UZuUjs4NNoFFbNbwwzbRaD8bF5vGce5i9chF0PtBkvcUfbn4diYN/6sNPmlBgSzmDehLlYs/sqkrVZufj8OAejf/wfqlhqMxiMDyVyMzq0nI4LkQoqUV/HfvAObOtZFqayz6RMmWD4Nki4dwarh7XFKnVPzJmYRxzwJdAztYO7g1EJHOExSgrpcc/wPPwF4tO1GZRnh4KwYvUVWP80BeNHt4CTNr/EEHcY4/qNx1FeHXTq2BwV8ihuPUsn2FqZQV+kzWAwPpTsONy/8QSKvHEPqIjo32M5kvofxsnhfrDQ++8LBubDUNLgSaFr6A7fihVRMTeV80IZO0MmFhifFImxNZw989Q7mrycLGEk0V5QgtE1t4eb9+vfzd3WFHImFhgfA4ExSpf1Rfk89auijytkQkHhDohxhzA4oBzcnZ3h/B6p0dJrSH57/bBYMMFQAuHx+BDw+eDnSTqfbQGM8a3C4+lA5616p/PBHtf/Kej3ePO7cU5izKoYHwfe2/VLwImFItQwQ3+MXr8d+w4exMH3SCs6lIGu6OMOI5lgYDAYDAbjvwpfFxb2jnDKZxahoGRrKP7ojpRMMDAYDAaDwSgU5vRYgtA4PQ7vjI36M7F7XTsw5+2SjSrmHk4dPYB9l59rc4qOoXMl1K3fCJUddbU5X4b7G8diwpQ9kHYu2U6P5616YMywH1HbRpvP+I8TjfOr/sSh0GgkvfcyfVm0HNocFSz1IdbmfBGeB6OW33BE9voHJ76E02PK99iTuBT12S6JrxMmGL4uSHYaEuNiEB2b8tZWq+Rb+7D20G2oyrRD/wZvb1YU6RnDzNwChtIvO0nIBAPjy5ANRfgTRCVlQvnWcYs3sKTzKgh6D8P/KtnB+K3wNHJYlraCkVj4ZafYP7NguLd7ItaeVeDJ0c3YfikSaSo5rPwaolV1O1RtPwHtK8hRWMRotiTBYHwheAIpDM1sUdrdHe5vJFcHY+gbCCAztX7rNS452VrAQMLMl/GtIoC+lSOcXd+2DXd3a+iq1DAws0fpfF+3gZHoC4uFL4Bjrf4YMHgUZm48het37+PBg8s4uWkexv88HM28dMEvwgNhLQ6D8cXggaej87rntDYJqNTXoQMObhdCfq/zud0JzIWf8Q3DowaSr23Qno9z9tPhwiEX8Pq3hkhuBnNzS1g7OMO5dGmU5pKjDSwt6OBDWrTdTkwwMBgMBoPBKBQmGBgMBoPBYBQKEwzfBGpkK9OgiI1FrDbFJSiQ9uYhVgwGg8FgvIPXBIMqKx2HR1SEv7//GykANau3weL72guLgioDimu/odlb7+WP2g2aYc557XWMT4YqJRrXd85Gl8Dy8PD0QYXKlVE5N/lVgE/ZcqjctB+mbT6PCCYeik/qPRxY/TMa51Pnc1OjPtOw9opCewOjJHB/62QMbFUl3/LMST3x24HriNZez/gwri3tjvYNq+bzfHPTEGy4+wIp2usZn5/XBIOOQIRyPy3C3Fmj0Vh2GxcuXNCm8/j30lHMW3QQWdprC0OZkYrzv/+CQy/f4yKu3QmDyXdTMXvGFLR1017I+ASokPjoNFYPaIBmfWZi5+UYiD3bYPii1fjrrz8QvHQ6BrZ0gyTiOi4f2oldf+3DvVTtrYwPR2oLv4bdMGpUB1S1VeHpy7p/AfcSxXBuMhhDe3ZAPRc97Q2MkoB19U74aehIdKksR8azqy/L9AIVfqa+rTBgUm80reAIQ+31jA/DqdkwDB8xGG1c0hB+7/Kr53w1C64NemD0Lz1Qw9YYX8HRJSWW1wQD53Vq7OyHSn410K1jVahUqpcpOzMZ0dt/xdYI7cUFQbKQoTiI39dEIfPle/AhFNZGp+7VUc63LOwNtNcyPjoZEbdwdMVQjN1yA+FKc5TrtgSbl/6MTvX8UalSFQTUboHuY4Lw5/rF6OvLo+JOAKlcezPjw9GRwsjSDVXrd0LHFk0R4JBb93Xh6OmP1u2boYa3w+cL0ML4KMjMHOFRpRE6/dAOFT3sIMht09wD0Lh5c7SoRdszEz2wc6qKh9y6DHyrN8OPfdvBxdwQvNznXKEJOrdqhED/MrCSiSHQXs/4/Lzlw8DjCyAQiKBvINPmaCEqpMddxPRVl7UZ70aVkYb7K2Zjd1LemFA86OjowkxfpDk4iZ2V9IlQxyPs3n6sDrqKmFQhrO190eGHhnCzMoaeSEjLVgChSAq5sQ3KlquMeo1qQGrlAHPWh30EuG2SVBhLDGBibARjfW02+JDKpDA0lEIsYNshSxqara9CCfQsrGGklyc6oEQfurp6kIkE4LNCLTac7QhEMhjY2MNQLHklDGTG0NfVhUTI9RvsOX9JCnR6FIhEaNClC6y0v5OsZDxd9Rv2xGkz8oMoka44jaXBoVDV6oRObwSpY8X9iUmOQ/T1sziq4GIH6kEud4GbmySfguaBTwWE1FAOvkAGqTb360UFpTITGRlvxlQsAJUSGempSHmfezRQ4UArel5RzP3O2roCyM5ARmYWst4jzG92RgpS09Lf655ioYl9kbcQuZ+/jUJVpimQkq5E9ltRFd+NMi1NM8P8HrfkQIXD68KAGc5/hQIFA48vgmnDIRhcRZtBxUBa1H5MDrqpzXgbdWYanmydid0p1ug6qCOc2Tzd50WVDVVGEtI1vyiQkHQdV+6+w6PR0BX+XSdj3fT6MNVmfbVEhWDPrz1R94dRWHk5RptZAMpIXNw2G92adMf44AtI1GYzPg2P9s/H8O+bYPTSA3hYBJ/QjNBdmDu4LVqNDMbhB8wB59MSi6O/9ELr5gOw9uxjJBVBP7/YPwntm1VD/z+u4WmSNpNR4ilQMICnA6FRaXQc3JqOVXNQZyXg/spFOJSszXiNbKSnXUDwnNtQ+fVFn8pmbL3ps8Op8dynrkTU7VNYNXwQVlyJoL+9AV8MXSNL2FnJv/5yMimDSjXqICD7AOZPn4GVVwoQDZxY2LkS0yZtRoK1H1q28AFz8fi02NRoiXrexghZMQkL1xxAaAGigRMLC36ZgxXXrBBQrSYqO37982NfFkP4d+8EH1zB7MHTsPUcFQ0FzOpwYqHv5GDccuiE/1V1RKkvez4a4yNSsGCg8AQymNYZjgGe2gySjbTo3Zi5Jkyb8QpuduHF9nlYnyhG6/6d4CRmU0mfHX0DGLmXRXntr6rMRDw4sRbjW9eCX+W66DRiPnb9exsR31oQBoEUVuXboG//gWjCP4QF03/JXzQoozRiYfrErcgo1x4jp/yEKrTF+/wuHtwncqvl34bkFum7oP7A8ejTzBZ3gidj4R/5i4aM0N1YOJOKhRtO6EjLsndTdxiLC23GGMVCALlDPYxcPA4N5SGYO2Q6tr1DNEQcmIx+VCzcKTMIcwZ1RA0XQ4i+gH8Ud96UWEQ7ONYFfVSKYGk6EBl6offwVppCoIoB2RnxuLpgPg69tscyGxmp5xE07SKyfIdiaD39kt/UKVMQe2Mrpo8ZgzHFTRNmYuG6a59+altgDgfPJujaIdd5hJYXt8Ml7D6uXz6FHSuno8/3TVGjQhVUbz4Eiw7dw7cSFUBHrAe7yt+j34BBaKwVDavyigYqFi79nSMW0nypWJjWBwH2hvgS/ZGeRwsMGjYOI5qXuPMfPxABZCbuaDSMioamNri96m3RkCsWll93Qof+g9C/lRfMdYVshftzoCOBqUt9jFk2gYqGa/mKBk4s9J28CrepWJg7uDMCPcwgKez4w09CeQzasQa9ajjC6K2TKhnFIf/jrbPTkbSrE0w7H0anvxVYXVeNzJjzmFTHHzNvcRfwINAthcCVF7Hv+xyXSHVWMkI3dkK1ARfQ7M+7CGqhB2V8COZVroDxD7krJDC06ILtkctRW3NHftDOLUuBe8c2YfPGvTh8PwIJCamapREdiRks7F3hXysQzVo2hK/dG9uYiBIZ8XdxbPNmbPrnKB5EJEBzK58PqZkl7F39Ubt+M7RoUBa2ukV0rMhORezt/Vi2fDdCi7lMypeawDnge/TqVBEm2rz3pajHW6uzUxBxaz+CZ03GvA03kf8Sog4EtAM1LFUGAU17YtrMH+DFbYxJjcL9c/9gzZF3R+kS6JrAsUIdBPp7wUb/XRapRlZKFB5cPIQ9f/+D42cfISo5GRn0FR2RCHqWdnD1ronABg1RP8AVFjoKPL58DH/vufrOADgCuRXcqtZHYDU3mBdDjaozUxB2fgOWLv4N+1T1MWTsKPzorc4RCxO2IJWKhVHTiycWnh5YjFljBmDpFe43I1TvOhRTfh2HWsaal78aPv7x1tlIi7uDfXOnImjvc3j+NAkDu9SHddweLPxltmZm4ft+AzGgtffHEQvvc7x17EGM6j0Oy7ZdzLGpysPx55wh6Fy9lOZlIJm2XTtw6N+7ePHO9kIOe79qCKxZHg7Guu8esVHx+vDcMezevR/Hrt/F08gUZGVx7oMSyOUWcPItj1ptWyCwYlnYGUgQeeEv7Dp5B8/fOSLRh2vdRqhXpQxK0fbvg7txdQZiHxzEjD5TcSDFB8Pnj0WbKo5IPTIFfSetxG23gVRMdCmeWIjYiHaNR2H3tTBNe4HAhbiwrCv8nL+yvfif+XjrjwInGN5CmUYU21oToUyfdD+Uk6XOUpB7QfUI7R44gUFoD05MvaeRy5pXlSQ14QQZ6mpCDMtNJVdTubxskhZ3mUwtrb0eEmJo0ZMc1Vz/NqoMBbm/dQip7+VDyjbqQxb8tZ+cvXGH3Lp1i9y8eZ2cP76VLBjSlHibOZHydSaT85naGzWfc5tsGhRIvHx9SZP+v5F1B86SG3du0XtvkhshZ8nRTfPIwMZexMylEmk4/SJ5eWthqFUkOyOJxESEk/DwYqYXkSRWkU7/2g8n/u5pMrepI6nYYROJ0Oblj5qoaBnGh98i5w+sIBO7ViNuJgJtObyReAIisfYn7WadIYncraoskp4YQa4dWEWG1zMlhlbupHLbSWQzfaYhl8+SI5t/JYPaVCSlbRyIR92OZOSWR5pPzItS8Yyc+2scaRfgR2q0HUrmbTxBzl+9Qe7Qsrx16wYJuXSc7F4+gXSr50FKlW9B+qy4TBRqJclQRJOHx9aQqR1diKFxaVKpwRCyYt8pcu7MUbJ94c+kax0PYmnnRKp8N4Asu5ik/bQPgyvXR8eXk2Ft3Yh7/bbkp4GDSEsPHxLYfjo5HBpPMlTaCz+QsP2LSN/yuc/ZiFTvOpUci9O++BVxb8MY8l2ZsqTbjJ0kVJtXfJQkJSaEbBn1P1LXtRLp2K8f6fJddeJUqQsZ88clEpGcRWv4RyL2EBn7XRVSb/BKcvSZNu9dxBwgI9v4Ef1c26k8nPx5Mlz7Ikc2SU+KJGGX/yT9m1Uh1oYmpNL3I8iSv0+RC1cukdO7VtPPqkZ8XOyIs2tjMnnTOfI8Q3vrSxTk+rqppHPdSqRmi/5k5pr95PS1m+Tmbc52blHbOUMOrp9OejfwIe5O5Ujv1afJQ2oKWSlx5MX9v8mkZlWJi5EhcW06hMzacIKcPXeS7Pl9Gulcx5uUdnIkpf36kTXnQkmxrEeVRmLu7CSDa1UgZXy7ksmju5G6frbEtdsssvNaJElXFtN4Xmwg//O1J5Lc5xy4kFx4qGmdvi6erSI1LQ2J28SzJDK5OD3D56PIgoGos0nKi32ki6W2EMEjQrkD6bA9lqgzk0nYxv8RM31j0nJFJMnS3FBUwaAmmUlPyIGfaxJXR1vi23oJOfjoBYlPziDZL1sFNcnOSiOJz2+SU0t/IJ7VFpNQ7jVVBol/sIcMq+5KHB0qkHbLDpHHLxJISkb2qwaF/t1ZqYnk6bVj5LcevqRO0KOP19h8ZoouGHKhgoeWTXxkGAm9E0IuHttOFo/pTALc9LVlok18Q+JZfwjZH6u9jT6h5IdHyYpulgRGHqTm4F0kPC2TKLMySXpKPHl+eTtZ8IMH4QkNiFezwWRHnoY2M+o62T2zNfFyr0wa9V5FTj+IIHHJ9F7Vq6euVlFxkBRH7hxYSUZ0b0o6rbytFVK0nJ+fIutG+FFB6khqtltMQtIySGZmBklJiCbXd/9GelcREIF+WdJy2HYSprnnw8nOSCCPjiwkQ5vZEj1DD1Kn7XSy/yOIBQ4mGIoLFQ2RIWT9oDakmo2c6Ff4noz848LHFQscH1UwcFCxnnWRzGtfg9hAQGqOWUNOUVWQpcwiGakKEv3sFJnfKYA4ScXEqNZYsv3CC2qlWtKekF0zupA6Ls4kcMAisutiGIlNSidZb9hOZmo8ibyzlgys2YqMCz5JnqRpX8t+Sjb3qEXcZSBl+qwkRx4kaWwnVRFLnocEk+5VXYicLyfVJ+wiVyOVOTd9KBrRsIUM9vclzka6xL7DbLL9ykcQCxxMMPxnKfqcEY8PqXFl/Dy4hjaDIDstCkd+WYbL6Q/w+5wjyLLtjBHtzbW+DkVDnaFA6LZh6LHqKmL1W2DqvM6o6WgFIz0x+C/nG3ngC6UwsLCFY3kPGFmYQo+nQlrcPWz9uTd+v5kI45ZTMbtTDThYGUJXzH81VUn/bqHMAJZ2DihXxgjmJrrf0JqnDvgiPfq87ODk7o3y1Rqhy7DZWL9rP3Yu7Qe/XOdyVRIS4u/h5jPt79zz5gsgEgs0z48vkkAqFUEgFEGia4RSZf1QpWF9lFcmIer5XVx7pF30SLqPczvnYMiiEEg8m2P4qO9QydkSxnr03jzeRzwdAcRyY9g42KKctzls7cy0ToU5nysUcjVIRxNATCoVQyQSQ9fQDGV8fFClsheyUxOQEPEUcTl7Rz8Yvk4mYiKjcOtyBFISnyA0IYwm1efxWUgIxZkdQfn7u2jTpLlB2Hr6LqJTC9rHxgVUC8WFXYsx7qc2CPTzQzlPT3jSVLZiRdRo3h69J63ArvOPkJCpAtKe4ereNZiTz+flpsm//o7dV54i8XPFN8gXAfgpj3E/8jFuRyQj+eEtxEZFI0X9X/dZ4EGH2omIT+2G/iYQSyCWiCEUCCGW6cPMpjKaNCwLJ3sBEi5dw4PwKO2SYTIurJqGxcF/I7J8R/TuRsvS1xYmcgmEb9iOSGYEC1c3WJuUgbOxHvS0sZJ5fDHEQvq5tP7yxWJIxfTvoLYj0zeBtWdd1HOzhKUoGaHh0UhKK2qQ/3egI4XyyWXcSHiGsIRUvLgQgpiUNCh5n8N4EnFt50LMmpx//c1Jc7Dm8DXE0O/JqY53kvUcN/atxJT+7dCgrh/KlvXS2I6npx8CApqj25DpWHv+LqJSsqGmb/To0K+YOSW/z8tNc7Hp0hMkKlUFf24J5b1KV0ckh0PHweikXTynI3wk3FyEGX2mYVmoGgEDB6Ki/D3MmWQhJfYkfp3wD6JVclQf0B/17OXvDrHK14WZdwcsm1YXxlRoRJ5cgCkHYgCD6ujfpzbsaMf0Lrj173IdFmFSrQ/1ICghKBWIuHYMW1adxlNtVg60IRNIIDe2hJ1LJTRs3hnDBtTUOqaqoVZnI7OI8Yl4tPETyfQgo02iRKILI2Nu31QGnt+6hJ1LdiBa1xrlW7WDv60ehAVUB5ldZTRoPwa9KhtpcwqGq6yaRL+DiasXrF+G3PsAlFG4vCsYM2fth7r2OPy5fhrayM9i6cyZWH01VnvRJ0RuA58ajdHEQ4TwYyuwbN0R3Ewwh39gS3zXqiGqOvPx5FAQRndqivpdx2DZsbdjsmdF38LeeQPRrnk3TNmVALumQzFz5e9Yt3kzNm/egD8WzUC/6qaIoI3cgFGzsfzgQ6RJLDR+II0r6SH+2gYsW7EHV1/I4FW3GZrVrwYvWSwub5mNvm3roc2Qefj7Xpr20z4vGY/2YvGcX7HhmRf6LN6AJd1dELr2Fyz+8xBy9WnJRAhdOhgSimhNtrCEXC+nvcu+uw2/7zuBM1FuqNuwLip6WEAiKMB4dNzw/ZQf0bC6C/SL0uTy6QCP2rdabQxfdypEDIt3IkPEwWkYMG0dIiuNwJ+7V+BH69tYOPwXbL8YhuRPLjTlcK3VFm0DS+HugW0IXrYKZ5NM4F2nBdq0a40G5Uoh6dLvmNG7NapV7ITlF57ls6MjAecXDkCjGs0x5K8wmNcdgOm/rcGGjZuo7WzGut/nYmwPD2ScDsaEjj/gt3MRUCgB68od0aGtN5L+2Yw/gpZhd5gBXKq3RJuW9VHRRo0b+5dgZPtAVKk1EUciFEU+e6mk8H5ykCeA1Kw6Bg+qrM0gUGbE4MCuo0iTt8aA9vbvFU+dZKUh8fgabApXQSr3R5t6zpAUVPnpaFcks4SHqzGUyfE48ddWvFDrwSCgFeo4SwocefAEdJRqWQYuJu/hWJIWhYebB8LLy+sjpAA0/W4pND6jnxJVKiJCL2L732fxzkgD9DmKjSxg4+ECM02GDHpSGzi9y4vyDbLjovEs5BJC9Bxg69kc9V3oM017jkd3DmLXHTWsSrmgVoADJIXULh2JAYwsHWGrX4QyUcbj9tWz+PtIAu1oG6H7/6rC5P1q7yu0YmHGlK1IKdsOP08ZSA2+O/r164kG2Xsxd/JkrDj7iUUDrY96xjYo42oLK6phE7P1YOpSHpWr+sLTtzLq/m8gJo76CY29Vbix909s274FJ/N4g6Y/OoLgmUMwfE0ozOsPwqRxvfFdYCX4+njCQzNC8oZvpVpo9uN4jO/TFjWcebTxEtMyEUFmZAU3dyeY004jMZEPM9syqBRQARWq1kazPpMx6seGqCB7hFMb/sGxI5cRpf3Mz0Xm431YPHs2Vt2wR7u+A9CvYwt0HjkBP9W3RMji8ZgTfAB3S6xoiMbNi08QHa6Gb6NKKONiBSmycf3oEdy6+wSZrgGoWNoJloUZD/Rg7W4PcyrWizKjm3RqE/6+Ew5+7V7oWscLjgYfajxULByajgFTVuBu6X6YMagrWgR+j8nLRqOe5CJm952ETecfQ/FJRQMfMsNScKzgCQduoJOogIG3PypWKIeyXj6o0qgTxq6Yj/+VIoh9uAcTf9mLsMjkVyP+1Hv4c1A79J6zD8LGYzF1Yj+0b1AF5Tyo3XCJ2o9PRX/UbTcc84KHoQK1TUPasenQRybWt4CtWyV4GiqRmZIIMf25ul9ZlPWtggYdhmLx8v5wSYvF4/NLsGDPCyjS3jvO5X+a96w1dJQqooqqwyC01EZyIoQgi5ZEpWHDULMoDX8esjMzcf/0MSRTISI094CXdVFc37kzKbKRnn4f/55IBk8khoW7J6yL8tHcbouiqPFcJEawrtMfK5cswZLipqVzaaP+MbzIC0GtQnZaDGLiHuF5AX2eOjUFKU8fQXOJXilYeASiWqGCQY20uJvY++dMTA1+DJ9WvTFpdCuUpiP9rMQ4hN+7iTCVHnRltBPUL1pZ8t5VJuokRLy4igNH/sH2dQsxrHdvDF99G+7dF2EVHVXXceXmNz4AKhau7M4RC0ne3+HnyT1RzcEIMqkB7Kt1pKKhLxqSg5g/czJWnvvEooF+d4FQAJGQfhMdagNiCSQSbumHm0Y2g4N/TVSvXAkuVJQ/ehKKB7mu9zH/Ysua+fhlczRK1/0fevdsAl97MxjIhHnONKDPls+JAws4l7aGj7clLCyMcgyeXiMQ5pwrwjW+IpFI87kisRRyEytUrFIBHmWcoEyMRGx0FJIyuZs+DxqxMCtHLPyvz0D0aeEDS7kUehYeaD50PH5qYoPbQROxgIqGeyVMNGQnh+L4gnGYt/k2hE1GYUKPJqhsLaUl9Rw3L0Uh6oUS+qUsYKyvW4SBF20H+Zzt5N+gRd2+jrPHj+DAliBM6NsWXWdegXXHWVg1fxCaeFlA+oF6gRMLA/OIhUAvc8jEejBza4JxQVQ06F3Fr/2nYAsVDQUFdyo+9PuLxRDTXpz7KgKpFBJajzVLP3qGsHKohe9au8PYUIXoo//iniIFOdU4AUen98evG/8FaTEKY7sEws/VCoYa29FcoIGnw72PKay9PFFKzx2u5sKX8SR4fAmkQmpf9Ge+REq/vxBCkQS6huawL98MzUrrQsZLxK0n0chSftF1vY9OgdWG23CZnPLGpArt3HXN6mBYv9xITiJI5a3Qv5vrG+cREKjUcQgr4HRLtVqNuGgFfeq0sKydYVmUPkaDmr53PGLorQJaitZOFh/WeRQGHY1JTUrT0VcAAoqb/Lm15VKf/syGrDRkxNzCxbBL2PDXhfxjLKiS8OT2Gaxffw5KOuos5eKDVj82gdU7nn/q82vYNqUp/P0ro1qLodgYWR3DgtZi9aweqO4g14xwVJnpSE+MoWMlakxiY5gVdwcU1xBwTrnJGSACOSzMpUh5dBSrFk7E2BmrceTpBzgwKKOpWFhNxcI2KLy4mYUcsZAzmONR4zekoqET+vfvh4bgRMNUrPog0aDSNBQZxexoeRoBwZ3zQW1OTxdyfa72pODW0aPYv+EY0u194N+wAXws6RX59xsa9L1aoWO7HmjhUbR4lZwHEPdI+NZ0pGvvCLP3mTYsBpxYWDJ7NlZet0Hb3gPRtyUVC3panwXa7uhZeqL58PHo2aQUbi+jouH3g59XNGSkIEOZSev4e5B8C+sn9Udr/wqoVP0HBN23xf8WrMGKGf3QwNMKUk3BJSExJRMZtKk1K2VIy7r4BzgLaPubmZ6ONJ4hLEylyHhyHrsWjMTQyX/gSGhsznbF94QTC4OoWLjj1BvTB3XRiAWpUNuF6MioaGiKsUFjtKJhKrZcePJhoiE1EWkqJbWi4iCm9iIGn1MBdnYwoGKC6yOUV1di1q6ruJNWBe3b14G7jRwF7v7U8cWA3wciwM4YogJs7CV8AiXXZRJzBPjaQML5gX1F5Puo1OoMhN1/AJUqGxfPXHpjHYZrWI3g3WsoWtCegk+Vnc+QYahvkOfB0IZenZ6AqAeXcOHlEqiSNqKXcfh8JPJqEBXnSZKthPphaM5ot0hwk0sqqOh/StowP3xU0GlYxYSOAvl0JMaNxoqb+J8h7FhmWhqinz1GctQN7J3bAy07j8EfJ8MQy0V2VKuQHnsPx9dOxrABk7DjoZIaeQ10GTsDP/jK3ym6JOZ2KFO5FpwTriDk8gOEhwPeNcvB2crw5bIDN9NE6PvTgkd6Zizi3tCZ748MJnRUWa1OXQQ2ao0fh/6C1ctnY2AgD2fX/4rZU37B7tedNAqGioWre3JmFhSe/8PIqb2o2MkVC7loRUP1zhhARUN99X78+t6igYqF1Cd4cO8u7j7WZtEOIez5Y1y5GY3U9zjIKuvpYzx4eBcPjMvB27s6KtnSP1ZxC5dunMXJJ0K4ubmhoo9VoQ0ZX9cClpbWsNAtqGXUkhmOU8f+xembOqjXvBla1fYs2hp5MckRC3OwIoSKhT6D0a9VHrGQi1Y0tBgxEb2alsKtJRM+m2jIzkhG+M1LeBYVrj2nhfL4Ou7TdusFta13TjzLnFC3jjMtozjcun4Wd4gpHN3LwtPaCLLczpbzIaJtGteqRdEBVGrqh3Tnr2Po7A6/6jVRt35jdBgwC0E712B4gBESj8xG36HBOHIj6r3W1zViYepK3KZiYdrgbqjPzVK8/Pu1UNFg7t5UO9NwJWem4T1FgzItEY8vn8GLZMUrYXb7X4Q8eYGE93IkDMeFY4+RkiRAwPe14GjKBRJU4tyOHbj/IhGkfCPUsDOFXkFKW4MBnMo7wliaIzgKI2HvUqx9qoR12zHo628B/a8s2vFrJa7KTMPhId7wKR+AVvPvgSjTEb66I8qX80PV8ee0V1F4QuhaNESv9jYQi2uiWzc32rxrUaYi4cBglK1YHY06zMfdlyVMOyvFTSxvXwvVa9XG1Au0IePzYelsS+0lG9mJ9xEar720UAQQCizgbENvzVIi8cEjJGhf+dYRGFihTM3v0bGCOVQRt3Fm+zKM6hKI6n600ynrg4rVmqDrqNU4FSVHwE8L8MeWVRjWqDSMChhF8kVGcKnaGt0H90U5nXBcPrUJs5ZcRN7jRCQSPRgbc1FvkpBEO8wn+c4sZSD82l781r8T+owci7Fjx2L0sP7oO2Is5h2hKuQ1uF0SEujp60Nf3xDGZqXg4lcfjeu3RC1pFC78ex57jt7TXlsEUmMREZkG3SqdMWZKz3zEQi6vRMPAocPRzoWHJ6FU5GpfLZDUe9gbNBz1KjVC79kbceVlz6LCi3PbMatrDdTtORErLxYWW1MFxdMT+H3JAqw5qkLDH/tiIL3Xhgr09IhnCHsSikhiDCO5JUx1i9CM8biln5wTNN9CHYuHDy/h4NE92LB8Onr3GIBfT/HRZMQSzBvVDhVs8zvp9OOT8OwBonTLodOgYfmLhVzyiIaBHXwhSX2GiITid7AF8WDTePRuXhl1eq3AoZCEV51W7GkEjeuC2n5dsWDPlfx9hvhSmFfqhpG9G6OKuwT3Ns9F8L5/cee1AEvGKGUmgVyXWg81nERFSv6zGA+3Y/zooegzaITGdsaOHYhu3w1B8NFbiH3jBm6XhK6enNqOPoyo7di7BKDLDw1hb8lD+PF1OHrzMWKK/NgUeHYrFLq1hmDWsG5okJ9YyEUjGppR0TABre3jEUE755QizrSFLOqI1vX80WDY37gdnvbqOUfuw4QezeFfrg/W33peqC0qE29h99g+mHUoFaX7zMecjhVhry+g9ekRzh+PpSJCBSMHW5iIiyICuKUf7vRM7a9v8PwyFe9Hj2D/hgUY2qURuiyJR4MZ67BuVhdUsJQV6PRdEnmt1HVEElQash7rN2zCjsOXcD0kBFeO78KGv9YguJeX9ioOHgQSc9SYsgP7D/yK/+UNu8d54lcZig0bt2DbriO4dP06rmtTyNWLOLZrC/5atRQ/eHCVWgTnypUgpFo3PfM8dp8tqmIQUKHiDL+KtAXNSEX6hb04zxSDBr7MDC71+mH2xoM4d+kU9m1ajilD+qF3z5/w40+9MGD4JCzZcACHj+/FikmdUcfTDqaywroEHoRyO1Rt8j2G9K8MEn4Oh7f8hmWnXw3tdAxNYerig9K0LCOjw3HuypsCgEMEM9cAfDd8Ivo29ITs3lYEbbmAp2ofNPPLcb8sCJ7ACKZWjihtR5CVnIy4FzGviZYCkTuhWrv+mDGpG/wdjd8hFnLRioaq7TFgxCj0b1y6aEtJUnsEtB6C5Ru3Yc/hk7gQ8qruXzl7Eodp3V89qQ9aeuQe5fY68Tf3YsnwRqhSpTICeyzBFb12mLJqFeYNb4XyVrq01nMjsCRkpCRSSUE7A5k+DPN/q6LDHSWcrUR2UhYEesYw08/G85CdWDhjAqat2IPLUZ/HgcGkfEcMGTESfZt6vVss5KIVDY0GTsLIn1qhotWnXTOxDeyFsYs2YeueYzhz4drLMr1+7RyO7t+FrRunokM1Nxhqr38TnsQIXi2HYEDjKnDFE+yeGYz9Z2/hVWtHRb47rdsmOlDfuYDbkS8Qm9+UhU1t9Oo7GCMHVoPw9klsWbYOEQ7l4V7aCYaF9nxC6Lt7w9bIGNKMx3gUk/wevil68Oo4BdMHdkPdMgWIhVw0oqEhBv+2ED3ruYFqoSLh0m4K5gVvwrZ/zuDi5ZBXz/nqGRzYvR2bN4xGQyfz/G0x8SIW9PoeTSqXg1+tQdipqovhG7dixc/tUdHGQLs1NR6xChU4t4JSDqY528aLCbccm5pK+yCBOWxpPxh//TDWT+2PftP+xg1FxvstX5UAXit5zgFN384b3t5vJC9PeNi80TLpCKBrVw5VKzi9PmXJ40NgaP/2e+RJXh5lYE3fjifUg0nVPhjqQ5CZFIMj01cjRPs2BcODxMAMVXsNgjdJR3zkUcz847r2tW8cbieJngmsHN3hXa4yagY2w/fdu6O7JnVFx/atEVitInzKuNAKLi96zAHaSEutyiOwwxD83NIE0Vf3Yd2vk7DxifZ1aSk4etRAs/J8pIY+wu1de3FH+9IrdCCSGcLCwQVONqYw0k1BYroaPF0zmOsXpdGnHVt2GhWX9OP05TC3tng1s1UYfAn0TSxgbVnUcM9UNIjlMDG3hKWRpEjTkVy8fUNu+SafOp+bPJxsYPaOWQF9Jx+UdS8Nw8gruHzuIVKVcnhX9YKdmRzcLjwOolZrEucUmpyp0Gz1Kh76sHH0RfU69dCgaXsMnLAYfy0aimZl4rF/0TjMWbIW/36GbRJCPVNYWljAuKjhnml91DWmZWNmDL3ch/OJkBjbwNEt//LMSc6wNCx4t4KQCtZGA4ajbY3y0Ivei9mz1+PAhXCtI54Qro2bo4yLC2SZV7DzxG3ce56Pjw4VHja2dnCgdUiPZCM1IRk8E0PI9Qr2YXlJeiKSsjOhFLjCwdgA8iJvS+ZDZmaDUqYGkBQmFnKhosHExh7mBlLaWWvzCkFm4QzXMvk939zkCJN3LQ3IPdCmuR3iosNw8/pp3JG5o7y3B1xoGyd86c2ohopzzKM8C49DVlbxvCQ4TD19Ua1mLdRt0BRdRyzBX4d+R0/rRNzdNhrt+mzE3di0dy9XlUCKZ2l0dCLI61r6vlCjl1mUR48xfeGUnYrwkKX4qec2vIwfVAA8oT6sKnTHyF6OdHT0BJeX9kW/nUW589uBR8WDUCzVTuvnJLmeDGKBTtEa5Tehna5pmTr4rscQdLBN0uyBXjFpIc5xEw08MSy9A9Dsp54ox3+OiyfW45ffzuQZRb0ON0VOqw/3k+ZfkUh9hod0BHYk1BhuruXRqIZD0TryEoJAVgp+LX5Apw5t4JJ9B3t3bsUfO+4gbyQEPSoG9fXNqHKIQUxCBCLydd9Jxp1/gjFz0I8YOHocxo0bh9GDeqLnhIXYePlNfwwqMLndEVz9MDCCmaUdPGq2RetqAfBUh+HQ4fM4e5XZVfHhQ9e2BvoO/w7VKxoh/uxyjF+yA6fu5qxNiO2bo0/X2ijvJsTDddOwYucp3E14R1fDrS1xS0yan7WpUNIRcvgYwp9HwsC/JWqWcYB5ceKY/Nfg68KmznDMHlAV9tQ8ri0dhiWnwhD92rKLGRxLCSGmyi7h7hMkZWTm35nfWIWuvQZg2M+jNbYzblw/dGgxHDvux4KOb16D2yWhsR2ajLkAebR97DeoAXT5Cjzeswz7HyUhrfi65D/Dp5XmRUBHaACH+sOwfFE7lE5/iqsbhqF5za6Y/e+zN5xyCNRZiXh0dC3G95+MQ9E6VPk7o9HQpfi1jTNSH13AX0Nbom6PX3H2+RvuPESFjPgHOPTnRAyefuSdhxsx8iEjDVlxudHoaHmJDFA6oDW6DekDbxKOc0e2YnHwec3rAj0bVGnTGxOmdIBz0nnsmDcCfcesxY34t4fB3CBZ+R6jY2XiE5zYEIRf5u5DZpl6VL3/iDq2BY3pSiK0Tpt6okXn9ujQ1g3pd/dg0+b12BHy6iQjvqU9rG1cYENlxP1Hz3DrXn4r5zI4VG2GLkNGomtFA8Sf34Cgfc/AN/KEv3vh21d4IivY2lnB2pwgLTYesbGJr4kWRlFRITkhE5m5e/G5Ex8r/oBRvRujqmMWHu+Yi+CDF3Cb0wwCOTxajMDU3m1RziABu2YMxJA5f+HMszzOfy/hct4hJvJDGYeQP8Zj/PIjeKDbDH36tkZlN5Oief2XIHhSM1T54ReMrGUHg+Q7+GvYQpwIi8pTdx1QvpwuZLo8qK8cwyVFMlLz86J0bo4Jo4ZhYE9vxO3dgjVLNyKzZgt4mxsUYXZSBKNylWEvkUCQdge3orI0SyBfC19cMHC7EIQG9qjeeTa2HF2PCYGGeHZmK+Z0CoRfuXKoVqcO6tSpjZo1/VG+Sj38sOwSzOu3RiVjeitfDCPnWug+ZzMVA2NQRx6Gk5tmomOgH8qVq0bvo/fWroma/hUQ0KAXgkPMUa9FRRQtruC3iTIxHJf/no+Rk+dg8ZYoKhie4eahX9Gvzxys3BqCODqcEcptUbVZBwzuXxWIuIxd8/qg44AFOBRGIDV1R+CPU7Fm8xIMCVDh8sqf0ZqWQe2WPTFu/gqs37IZK6b0x4ARExB8zQj+deuiflX7nHXJ9EhcO7Mfa7aF0PbwGc7vm4G2ftVRk9uWWqsNhq55AOs247Bw+Sz0rO0A3a9rx1IOPBHkLg3QqWs3dKomQeiB1QheHYzDuU6k+m6oUM4XAa46SLx0CddPn0XuqtAr+JAamqOUQ2k4WetBKkhCYpYAErmxZsq/cDKRlUUTFXRyM2OYmRmh+Bv9vgUicHnraszpPQ5/nAnBCzrIubF2IWaMHojFe67gWSLt5MXG8G41DAMaV4KH4Bn2/NIPffotwL7r0cjWd0DVbtPx5/plGNbAHKGbJqJzYA3Ubd0d/aeswOYt67Fi/jj0bPkz/rybBftGndGwrDPMNYWjxJNDwdh46Q6e0B7y4dqx6N62DmrUqYKKVeqi++KzENcYiaAV09C/iTssiuIsWwIRGXqi/dRpaO5aCuqwtRg2aiuuP0ui0k3zKnw7doGLiQmE6acQvDcUcYp8vAxk5nB2dIC9szXE6alISkiByNoScrGwaB1maiwS1CqohT5wNxUVeUmmJJD/8dZfBAJ1dgYUkeEIj41DXFQ4Htx9hnSBADp8AXRLlYabtQWMjIxgbmkBY1nebZxqKNMTERn+ArFxsYgKf6hZAxQI+OALdWFd2hXWFkb0XgtYmBsh760liaIeb10cSHYW0pLjEEONJD0lnTZDnDDj4uAbwJDbrWAi0zjfQZWB5PgIhEUkQ83L6YwsrCxgoNlGRKDKSoMiJhKR0fS9Ip/jRXgCsmRU3cv0oadnBCtzPYhFEnoffV9DIxhya9dqJdIUMXgREYs0jR3zoMPFY6Bvyc1I6Ih1YWBkDBMjecFhc0sQSVf/wNwpP2PqJV/0HDUVc/tVAhctQZX+Amf/molpUxfjRIo32gwai9Ej2sFTlyArNgSb503B1Pn7EOXaEgMmjMGItmWhn/OWr6G4EIRpk8dj7q2qGDx+Eqb2KA+NN1LoNkyZPAkT14vRY+JETBrfDC9Pdk64hNUzJmPykitw+2EcJo39Cf7vCNLx8Y+3/sy8z/HWhaJEanwiFIpEJKVTwZXNzQIIIdGVQt/YDEZybjmQq7cqpEY9R0ScgtZzHkS6ZrC0MoG+LKdDItlpSIiJQkx0LGKjnuBRVCp9ZwnkUjEMzExhoGsAqUxK7UgPRrTzk8tEEPAIMhWReBEVj5SMnO2H3NH+OjRfrSLQEdK/wcgUpsb6Gj+Er8N6/sXoCl2x/MpT1PnjPOa38YUtF6VenYaI/ePQvO/vuBItgUefIOwc1QDOnPelMgFnfuuAjjOPIYJXGr2CtmFCI1eYSvN7Iqcw1L0DVt2LRpNNN7GguQssNOIsHGvqB2DE8TA4TTuLHX38UEqeK8BScXZiLbRdcBXZ1YNwYGUHeFvKXgsK9ZKv5njrL46KKDPTSXJiIknkkkJBktOz8pxe+W40p7mlJ+fcR5MiKZmkZ+U5vbIE8/6nVf4HoK2VMjONpChyyzKZpKTRssxzAt+3jOLKGjK+pTmBYRXSefo/ecpVRdKjLpM/f25F3MRCIvf8jozbeIukcC+pM4niyQmydFAj4mwgJybujcig3/4hoYq3T7yL/XcZGdzAlMC+GRm86jJJ1uaTh1vJ5M5eBPwKpMeUXST3oMaMyBCyeUoXUtHKing2Gkp+P/OcpBVwkN6nO63yM/E+p1V+brjj9bOo7SQrtO2ZgtpOBqFC5Ktoz4rPGTKqfGliRMe9deeeJ48S8jyV9EhyYm4j4mAmJjpG7mTAzgckKj3npcz4m+Tv0Q2JtaGMGNr6kv/NP0AeJGa8OjX0JUfIEDdrIoeItN90n0Rq7yfkOfk90J6YCkEqzTpLwpO0BpIZSf6d15FUtJMRA5+eZMnJcJKcVUBJlcDTKvmTKFrt8B+Cc4gTQCThIt3RJBZDJHj3Xti8cDs9+AIu1G3OvWIxVd/8r0NRZ8Q9w9WDO3BTXA8d2njmjBT/62icG4UQaaIWcmUp0oRCfldI22+F9Be3cGJ3MBYEbcE/x+4jNjkWMXQ0eedBOiA2go2jCXRlJnC0FiIl9g5OnLqI61cu4WGyFNYunnAqZQXXCv7w97GA6tEZ7N+2DRu27sY/J68iLDYW4feu4OimJQhatxcXogzhXaMJWjSsCi8bOfjJoTiw+Q8EbziO54pYhN25gAPbtmBd8AoErfkbZyP0Uem7vhg6sCPqeVlBr4DN5HE3j+LYifsQ+tRGzeruJW+5L/0Rju47hnB5eVT3Lw/H/KZpvhS5tiMSa9sz2g4KcwLAfdvWE4YTQWvw57IgbDx3B1HpSkTduI+n1KaS5e5wNNeHRKoHqzJe0L1xAJfuPMSVk0dxJdQQbhUdYWlWCo5la6BRbTeoHp7GP7v+xra167D7zE3cCI1DVtwtHNi+Bkum/o6j8TK41eIOl2oIXysZRDpZuLd1Iqau/RehiizE3jyJ/fu3Y9PaIPy2aA3+uZsB9+ajMG38D2joYwW5qIC+J+kq1qw8iJSKndDd3/qT7/b5GPyHliQYhfE5liQYnwd1VhqSFPGI45Z+0nL2a+sIaccgM4KxsSGMDLRbOZXJVEhEIiI2FWodEfSMzWFpbkIbF64ZIlCmKxAXFYXomBhEPn+OqPg0QKZHG0x9GBkawtSINnJiKaT63FKOAeRSAXjcKbMxkYiKSUSGZnFXJ2fpB1zEQR0IJHIYmZrC2EAGcSG7oNiSBOPzk4mkyDgoUhRITMvKiRYMEXRpfTUwsYKxnlgb7jkbimcPEZ6QgSw1D2J9a9jaGkGXDlg01kNtK/rFC8TExiE24hEeRCshEMmgzy39WJhDX0LtSCaFXK4PYzNTyMU5SzzpcWEIi0hCZjYXn5N2olwUX2o5KhUBX6wLQxNLmJvoUnFRiKwrgUsSTDCUIJhgYLwLQlSaw9wys5SakOnclmUhd6iUSEDFQCENVzFggoFR4uFsJysD6ZnZ0GgPKie4g+BEIiEVHp/OdkqiYPiK/DcZjG8XTcwNiQx6+gYwMKBJXxcyifCTigUG46uACzYo5g5309qOgT61HdGnFQslFCYYGAwGg8FgFAoTDAwGg8FgMAqFCQYGg8FgMBiFwgQDg8FgMBiMQmGCgcFgMBgMRqEwwVDSUKUhOeIqTh8/juO56dRZXLkXqQnjzGB8KtJiH+PWpTz1jqZTN8MQnqK9oAST+PAerp58/btdexgJRc750wxG8ch6jhtnT+FEnvp1/Mw1xGUpNbEcSgosDkMJQvHoPNaNaY5pZ41hZSHPCezDIbOGZ4O+mD06EGbaLAbjY/PsWBBWrFqNAw+0GZSslHjEJ9ii5cjRGDa4Puy1+SWGuOOY+/MvWHP0KXiGckjznM3l23E8+nVoBh9mVIziErkTw3osxrmYpFcDu2wFXoTHw3HIXuwYUAGmJeBAMCYYShCqzFTEvwhFRLI2IxcdEaSGlnCwMcTXduAz478Dd7hRVFQ0EjO0GS+RwsiSO9hNHyJtTokhOxnR4VGIUaRpTzR8ha6ZLSxNuciA2gwG40PJiseThxFIzs45GCwvEnNnOJnLSkTcByYYGAwGg8FgFArzYWAwGAwGg1EoTDAwGAwGg8EoFCYYGAwGg8FgFAoTDAwGg8FgMAqFCQYGg8FgMBiFwgQDg8FgMBiMQmGCgcFgMBgMRqEwwcBgMBgMBqNQmGBgMBgMBoNRCMD/AcK+CBDC+X8wAAAAAElFTkSuQmCC;" parent="1" vertex="1">
                    <mxGeometry x="86.30000000000001" y="490" width="277.41" height="45" as="geometry"/>
                </mxCell>
                <mxCell id="37" style="edgeStyle=none;html=1;entryX=0;entryY=0.5;entryDx=0;entryDy=0;" parent="1" source="30" target="32" edge="1">
                    <mxGeometry relative="1" as="geometry">
                        <Array as="points">
                            <mxPoint x="810" y="245"/>
                            <mxPoint x="810" y="370"/>
                            <mxPoint x="130" y="370"/>
                            <mxPoint x="130" y="430"/>
                        </Array>
                    </mxGeometry>
                </mxCell>
                <mxCell id="30" value="Get RGB value from dehazed checker patches&lt;span style=&quot;color: rgba(0, 0, 0, 0); font-family: monospace; font-size: 0px; text-align: start;&quot;&gt;%3CmxGraphModel%3E%3Croot%3E%3CmxCell%20id%3D%220%22%2F%3E%3CmxCell%20id%3D%221%22%20parent%3D%220%22%2F%3E%3CmxCell%20id%3D%222%22%20value%3D%22%22%20style%3D%22shape%3Dimage%3BverticalLabelPosition%3Dbottom%3BlabelBackgroundColor%3Ddefault%3BverticalAlign%3Dtop%3Baspect%3Dfixed%3BimageAspect%3D0%3Bimage%3Ddata%3Aimage%2Fpng%2CiVBORw0KGgoAAAANSUhEUgAAAgwAAABVCAYAAAAlmLwZAAAAAXNSR0IArs4c6QAAAARnQU1BAACxjwv8YQUAAAAJcEhZcwAADsMAAA7DAcdvqGQAADt6SURBVHhe7Z0FXJTJG8d%2Fy%2FbC0ikNEhKCgQG2Yrf%2BPc%2F2vLM7zu4489SzMPC8O7vPOrs9O7ALFRXpWBqW3fnPuyyKioBiHDrfj%2FMRZt93l31nnpnfzDzzDI9QwGAwGAwGg1EAOtr%2FGQwGg8FgMN4JEwwMBoPBYDAKhQkGBoPBYDAYhcIEA4PBYDAYjEJhgoHBYDAYDEahMMHAYDAYDAajUJhgYDAYDAaDUShMMDAYDAaDwSgUJhgYDAaDwWAUChMMDAaDwWAwCoUJBgaDwWAwGIXCBAODwWAwGIxCYYKBwWAwGAxGoTDBwGAwGAwGo1CYYGAwGAwGg1EoTDAwGAwGg8EoFCYYGAwGg8H4hsgMP40%2FVx7Ek6xsqLV5RYEJBgaDwWAwvnoyEXt3J8a0KgtP%2F7YYMn4XwjKzQbSvFgUmGBgMBoPB%2BJq5vhB1vLxRf%2BQJWNarBFFMAhIT05D9PmqBwgQDg8FgMBhfM46tMX%2FjHuwMGofugWUhE3xY188EA4PBYDAYXzN61vDycIGdlQnkEiF42uz3hQkGBoPBYDC%2BZng64Ot8qEx4BY9QtD8z%2FuOoVUpkJCciVanNyEWHD6FEDkNdoTaDwfj4ZGemIi01DZkqbcZLBBDryqArE4OvzSk5ZCM9OQXpGUq8%2BbUEUjn0pBIIS96XYvznyEJKfDIyVOq3nAxFetyoXwcfoT8vGk%2BXwc9rKK5kfY%2BD0UtRS19SZLtlgqEEoXh0CZvHtcX0f7UZuUjs4NNoFFbNbwwzbRaD8bF5vGce5i9chF0PtBkvcUfbn4diYN%2F6sNPmlBgSzmDehLlYs%2FsqkrVZufj8OAejf%2FwfqlhqMxiMDyVyMzq0nI4LkQoqUV%2FHfvAObOtZFqayz6RMmWD4Nki4dwarh7XFKnVPzJmYRxzwJdAztYO7g1EJHOExSgrpcc%2FwPPwF4tO1GZRnh4KwYvUVWP80BeNHt4CTNr%2FEEHcY4%2FqNx1FeHXTq2BwV8ihuPUsn2FqZQV%2BkzWAwPpTsONy%2F8QSKvHEPqIjo32M5kvofxsnhfrDQ%2B%2B8LBubDUNLgSaFr6A7fihVRMTeV80IZO0MmFhifFImxNZw989Q7mrycLGEk0V5QgtE1t4eb9%2Bvfzd3WFHImFhgfA4ExSpf1Rfk89auijytkQkHhDohxhzA4oBzcnZ3h%2FB6p0dJrSH57%2FbBYMMFQAuHx%2BBDw%2BeDnSTqfbQGM8a3C4%2BlA5616p%2FPBHtf%2FKej3ePO7cU5izKoYHwfe2%2FVLwImFItQwQ3%2BMXr8d%2Bw4exMH3SCs6lIGu6OMOI5lgYDAYDAbjvwpfFxb2jnDKZxahoGRrKP7ojpRMMDAYDAaDwSgU5vRYgtA4PQ7vjI36M7F7XTsw5%2B2SjSrmHk4dPYB9l59rc4qOoXMl1K3fCJUddbU5X4b7G8diwpQ9kHYu2U6P5616YMywH1HbRpvP%2BI8TjfOr%2FsSh0GgkvfcyfVm0HNocFSz1IdbmfBGeB6OW33BE9voHJ76E02PK99iTuBT12S6JrxMmGL4uSHYaEuNiEB2b8tZWq%2BRb%2B7D20G2oyrRD%2FwZvb1YU6RnDzNwChtIvO0nIBAPjy5ANRfgTRCVlQvnWcYs3sKTzKgh6D8P%2FKtnB%2BK3wNHJYlraCkVj4ZafYP7NguLd7ItaeVeDJ0c3YfikSaSo5rPwaolV1O1RtPwHtK8hRWMRotiTBYHwheAIpDM1sUdrdHe5vJFcHY%2BgbCCAztX7rNS452VrAQMLMl%2FGtIoC%2BlSOcXd%2B2DXd3a%2Biq1DAws0fpfF%2B3gZHoC4uFL4Bjrf4YMHgUZm48het37%2BPBg8s4uWkexv88HM28dMEvwgNhLQ6D8cXggaej87rntDYJqNTXoQMObhdCfq%2Fzud0JzIWf8Q3DowaSr23Qno9z9tPhwiEX8Pq3hkhuBnNzS1g7OMO5dGmU5pKjDSwt6OBDWrTdTkwwMBgMBoPBKBQmGBgMBoPBYBQKEwzfBGpkK9OgiI1FrDbFJSiQ9uYhVgwGg8FgvIPXBIMqKx2HR1SEv7%2F%2FGykANau3weL72guLgioDimu%2Fodlb7%2BWP2g2aYc557XWMT4YqJRrXd85Gl8Dy8PD0QYXKlVE5N%2FlVgE%2FZcqjctB%2BmbT6PCCYeik%2FqPRxY%2FTMa51Pnc1OjPtOw9opCewOjJHB%2F62QMbFUl3%2FLMST3x24HriNZez%2Fgwri3tjvYNq%2BbzfHPTEGy4%2BwIp2usZn5%2FXBIOOQIRyPy3C3Fmj0Vh2GxcuXNCm8%2Fj30lHMW3QQWdprC0OZkYrzv%2F%2BCQy%2Ff4yKu3QmDyXdTMXvGFLR1017I%2BASokPjoNFYPaIBmfWZi5%2BUYiD3bYPii1fjrrz8QvHQ6BrZ0gyTiOi4f2oldf%2B3DvVTtrYwPR2oLv4bdMGpUB1S1VeHpy7p%2FAfcSxXBuMhhDe3ZAPRc97Q2MkoB19U74aehIdKksR8azqy%2FL9AIVfqa%2BrTBgUm80reAIQ%2B31jA%2FDqdkwDB8xGG1c0hB%2B7%2FKr53w1C64NemD0Lz1Qw9YYX8HRJSWW1wQD53Vq7OyHSn410K1jVahUqpcpOzMZ0dt%2FxdYI7cUFQbKQoTiI39dEIfPle%2FAhFNZGp%2B7VUc63LOwNtNcyPjoZEbdwdMVQjN1yA%2BFKc5TrtgSbl%2F6MTvX8UalSFQTUboHuY4Lw5%2FrF6OvLo%2BJOAKlcezPjw9GRwsjSDVXrd0LHFk0R4JBb93Xh6OmP1u2boYa3w%2BcL0ML4KMjMHOFRpRE6%2FdAOFT3sIMht09wD0Lh5c7SoRdszEz2wc6qKh9y6DHyrN8OPfdvBxdwQvNznXKEJOrdqhED%2FMrCSiSHQXs%2F4%2FLzlw8DjCyAQiKBvINPmaCEqpMddxPRVl7UZ70aVkYb7K2Zjd1LemFA86OjowkxfpDk4iZ2V9IlQxyPs3n6sDrqKmFQhrO190eGHhnCzMoaeSEjLVgChSAq5sQ3KlquMeo1qQGrlAHPWh30EuG2SVBhLDGBibARjfW02%2BJDKpDA0lEIsYNshSxqara9CCfQsrGGklyc6oEQfurp6kIkE4LNCLTac7QhEMhjY2MNQLHklDGTG0NfVhUTI9RvsOX9JCnR6FIhEaNClC6y0v5OsZDxd9Rv2xGkz8oMoka44jaXBoVDV6oRObwSpY8X9iUmOQ%2FT1sziq4GIH6kEud4GbmySfguaBTwWE1FAOvkAGqTb360UFpTITGRlvxlQsAJUSGempSHmfezRQ4UArel5RzP3O2roCyM5ARmYWst4jzG92RgpS09Lf655ioYl9kbcQuZ%2B%2FjUJVpimQkq5E9ltRFd%2BNMi1NM8P8HrfkQIXD68KAGc5%2FhQIFA48vgmnDIRhcRZtBxUBa1H5MDrqpzXgbdWYanmydid0p1ug6qCOc2Tzd50WVDVVGEtI1vyiQkHQdV%2B6%2Bw6PR0BX%2BXSdj3fT6MNVmfbVEhWDPrz1R94dRWHk5RptZAMpIXNw2G92adMf44AtI1GYzPg2P9s%2FH8O%2BbYPTSA3hYBJ%2FQjNBdmDu4LVqNDMbhB8wB59MSi6O%2F9ELr5gOw9uxjJBVBP7%2FYPwntm1VD%2Fz%2Bu4WmSNpNR4ilQMICnA6FRaXQc3JqOVXNQZyXg%2FspFOJSszXiNbKSnXUDwnNtQ%2BfVFn8pmbL3ps8Op8dynrkTU7VNYNXwQVlyJoL%2B9AV8MXSNL2FnJv%2F5yMimDSjXqICD7AOZPn4GVVwoQDZxY2LkS0yZtRoK1H1q28AFz8fi02NRoiXrexghZMQkL1xxAaAGigRMLC36ZgxXXrBBQrSYqO37982NfFkP4d%2B8EH1zB7MHTsPUcFQ0FzOpwYqHv5GDccuiE%2F1V1RKkvez4a4yNSsGCg8AQymNYZjgGe2gySjbTo3Zi5Jkyb8QpuduHF9nlYnyhG6%2F6d4CRmU0mfHX0DGLmXRXntr6rMRDw4sRbjW9eCX%2BW66DRiPnb9exsR31oQBoEUVuXboG%2F%2FgWjCP4QF03%2FJXzQoozRiYfrErcgo1x4jp%2FyEKrTF%2B%2FwuHtwncqvl34bkFum7oP7A8ejTzBZ3gidj4R%2F5i4aM0N1YOJOKhRtO6EjLsndTdxiLC23GGMVCALlDPYxcPA4N5SGYO2Q6tr1DNEQcmIx%2BVCzcKTMIcwZ1RA0XQ4i%2BgH8Ud96UWEQ7ONYFfVSKYGk6EBl6offwVppCoIoB2RnxuLpgPg69tscyGxmp5xE07SKyfIdiaD39kt%2FUKVMQe2Mrpo8ZgzHFTRNmYuG6a59%2BaltgDgfPJujaIdd5hJYXt8Ml7D6uXz6FHSuno8%2F3TVGjQhVUbz4Eiw7dw7cSFUBHrAe7yt%2Bj34BBaKwVDavyigYqFi79nSMW0nypWJjWBwH2hvgS%2FZGeRwsMGjYOI5qXuPMfPxABZCbuaDSMioamNri96m3RkCsWll93Qof%2Bg9C%2FlRfMdYVshftzoCOBqUt9jFk2gYqGa%2FmKBk4s9J28CrepWJg7uDMCPcwgKez4w09CeQzasQa9ajjC6K2TKhnFIf%2FjrbPTkbSrE0w7H0anvxVYXVeNzJjzmFTHHzNvcRfwINAthcCVF7Hv%2BxyXSHVWMkI3dkK1ARfQ7M%2B7CGqhB2V8COZVroDxD7krJDC06ILtkctRW3NHftDOLUuBe8c2YfPGvTh8PwIJCamapREdiRks7F3hXysQzVo2hK%2FdG9uYiBIZ8XdxbPNmbPrnKB5EJEBzK58PqZkl7F39Ubt%2BM7RoUBa2ukV0rMhORezt%2FVi2fDdCi7lMypeawDnge%2FTqVBEm2rz3pajHW6uzUxBxaz%2BCZ03GvA03kf8Sog4EtAM1LFUGAU17YtrMH%2BDFbYxJjcL9c%2F9gzZF3R%2BkS6JrAsUIdBPp7wUb%2FXRapRlZKFB5cPIQ9f%2F%2BD42cfISo5GRn0FR2RCHqWdnD1ronABg1RP8AVFjoKPL58DH%2FvufrOADgCuRXcqtZHYDU3mBdDjaozUxB2fgOWLv4N%2B1T1MWTsKPzorc4RCxO2IJWKhVHTiycWnh5YjFljBmDpFe43I1TvOhRTfh2HWsaal78aPv7x1tlIi7uDfXOnImjvc3j%2BNAkDu9SHddweLPxltmZm4ft%2BAzGgtffHEQvvc7x17EGM6j0Oy7ZdzLGpysPx55wh6Fy9lOZlIJm2XTtw6N%2B7ePHO9kIOe79qCKxZHg7Guu8esVHx%2BvDcMezevR%2FHrt%2FF08gUZGVx7oMSyOUWcPItj1ptWyCwYlnYGUgQeeEv7Dp5B8%2FfOSLRh2vdRqhXpQxK0fbvg7txdQZiHxzEjD5TcSDFB8Pnj0WbKo5IPTIFfSetxG23gVRMdCmeWIjYiHaNR2H3tTBNe4HAhbiwrCv8nL%2Byvfif%2BXjrjwInGN5CmUYU21oToUyfdD%2BUk6XOUpB7QfUI7R44gUFoD05MvaeRy5pXlSQ14QQZ6mpCDMtNJVdTubxskhZ3mUwtrb0eEmJo0ZMc1Vz%2FNqoMBbm%2FdQip7%2BVDyjbqQxb8tZ%2BcvXGH3Lp1i9y8eZ2cP76VLBjSlHibOZHydSaT85naGzWfc5tsGhRIvHx9SZP%2Bv5F1B86SG3du0XtvkhshZ8nRTfPIwMZexMylEmk4%2FSJ5eWthqFUkOyOJxESEk%2FDwYqYXkSRWkU7%2F2g8n%2Fu5pMrepI6nYYROJ0Oblj5qoaBnGh98i5w%2BsIBO7ViNuJgJtObyReAIisfYn7WadIYncraoskp4YQa4dWEWG1zMlhlbupHLbSWQzfaYhl8%2BSI5t%2FJYPaVCSlbRyIR92OZOSWR5pPzItS8Yyc%2B2scaRfgR2q0HUrmbTxBzl%2B9Qe7Qsrx16wYJuXSc7F4%2BgXSr50FKlW9B%2Bqy4TBRqJclQRJOHx9aQqR1diKFxaVKpwRCyYt8pcu7MUbJ94c%2Bkax0PYmnnRKp8N4Asu5ik%2FbQPgyvXR8eXk2Ft3Yh7%2Fbbkp4GDSEsPHxLYfjo5HBpPMlTaCz%2BQsP2LSN%2Fyuc%2FZiFTvOpUci9O%2B%2BBVxb8MY8l2ZsqTbjJ0kVJtXfJQkJSaEbBn1P1LXtRLp2K8f6fJddeJUqQsZ88clEpGcRWv4RyL2EBn7XRVSb%2FBKcvSZNu9dxBwgI9v4Ef1c26k8nPx5Mlz7Ikc2SU%2BKJGGX%2FyT9m1Uh1oYmpNL3I8iSv0%2BRC1cukdO7VtPPqkZ8XOyIs2tjMnnTOfI8Q3vrSxTk%2BrqppHPdSqRmi%2F5k5pr95PS1m%2BTmbc52blHbOUMOrp9OejfwIe5O5Ujv1afJQ2oKWSlx5MX9v8mkZlWJi5EhcW06hMzacIKcPXeS7Pl9Gulcx5uUdnIkpf36kTXnQkmxrEeVRmLu7CSDa1UgZXy7ksmju5G6frbEtdsssvNaJElXFtN4Xmwg%2F%2FO1J5Lc5xy4kFx4qGmdvi6erSI1LQ2J28SzJDK5OD3D56PIgoGos0nKi32ki6W2EMEjQrkD6bA9lqgzk0nYxv8RM31j0nJFJMnS3FBUwaAmmUlPyIGfaxJXR1vi23oJOfjoBYlPziDZL1sFNcnOSiOJz2%2BSU0t%2FIJ7VFpNQ7jVVBol%2FsIcMq%2B5KHB0qkHbLDpHHLxJISkb2qwaF%2Ft1ZqYnk6bVj5LcevqRO0KOP19h8ZoouGHKhgoeWTXxkGAm9E0IuHttOFo%2FpTALc9LVlok18Q%2BJZfwjZH6u9jT6h5IdHyYpulgRGHqTm4F0kPC2TKLMySXpKPHl%2BeTtZ8IMH4QkNiFezwWRHnoY2M%2Bo62T2zNfFyr0wa9V5FTj%2BIIHHJ9F7Vq6euVlFxkBRH7hxYSUZ0b0o6rbytFVK0nJ%2BfIutG%2BFFB6khqtltMQtIySGZmBklJiCbXd%2F9GelcREIF%2BWdJy2HYSprnnw8nOSCCPjiwkQ5vZEj1DD1Kn7XSy%2FyOIBQ4mGIoLFQ2RIWT9oDakmo2c6Ff4noz848LHFQscH1UwcFCxnnWRzGtfg9hAQGqOWUNOUVWQpcwiGakKEv3sFJnfKYA4ScXEqNZYsv3CC2qlWtKekF0zupA6Ls4kcMAisutiGIlNSidZb9hOZmo8ibyzlgys2YqMCz5JnqRpX8t%2BSjb3qEXcZSBl%2BqwkRx4kaWwnVRFLnocEk%2B5VXYicLyfVJ%2BwiVyOVOTd9KBrRsIUM9vclzka6xL7DbLL9ykcQCxxMMPxnKfqcEY8PqXFl%2FDy4hjaDIDstCkd%2BWYbL6Q%2Fw%2B5wjyLLtjBHtzbW%2BDkVDnaFA6LZh6LHqKmL1W2DqvM6o6WgFIz0x%2BC%2FnG3ngC6UwsLCFY3kPGFmYQo%2BnQlrcPWz9uTd%2Bv5kI45ZTMbtTDThYGUJXzH81VUn%2FbqHMAJZ2DihXxgjmJrrf0JqnDvgiPfq87ODk7o3y1Rqhy7DZWL9rP3Yu7Qe%2FXOdyVRIS4u%2Fh5jPt79zz5gsgEgs0z48vkkAqFUEgFEGia4RSZf1QpWF9lFcmIer5XVx7pF30SLqPczvnYMiiEEg8m2P4qO9QydkSxnr03jzeRzwdAcRyY9g42KKctzls7cy0ToU5nysUcjVIRxNATCoVQyQSQ9fQDGV8fFClsheyUxOQEPEUcTl7Rz8Yvk4mYiKjcOtyBFISnyA0IYwm1efxWUgIxZkdQfn7u2jTpLlB2Hr6LqJTC9rHxgVUC8WFXYsx7qc2CPTzQzlPT3jSVLZiRdRo3h69J63ArvOPkJCpAtKe4ereNZiTz%2Bflpsm%2F%2Fo7dV54i8XPFN8gXAfgpj3E%2F8jFuRyQj%2BeEtxEZFI0X9X%2FdZ4EGH2omIT%2B2G%2FiYQSyCWiCEUCCGW6cPMpjKaNCwLJ3sBEi5dw4PwKO2SYTIurJqGxcF%2FI7J8R%2FTuRsvS1xYmcgmEb9iOSGYEC1c3WJuUgbOxHvS0sZJ5fDHEQvq5tP7yxWJIxfTvoLYj0zeBtWdd1HOzhKUoGaHh0UhKK2qQ%2F3egI4XyyWXcSHiGsIRUvLgQgpiUNCh5n8N4EnFt50LMmpx%2F%2Fc1Jc7Dm8DXE0O%2FJqY53kvUcN%2FatxJT%2B7dCgrh%2FKlvXS2I6npx8CApqj25DpWHv%2BLqJSsqGmb%2FTo0K%2BYOSW%2Fz8tNc7Hp0hMkKlUFf24J5b1KV0ckh0PHweikXTynI3wk3FyEGX2mYVmoGgEDB6Ki%2FD3MmWQhJfYkfp3wD6JVclQf0B%2F17OXvDrHK14WZdwcsm1YXxlRoRJ5cgCkHYgCD6ujfpzbsaMf0Lrj173IdFmFSrQ%2F1ICghKBWIuHYMW1adxlNtVg60IRNIIDe2hJ1LJTRs3hnDBtTUOqaqoVZnI7OI8Yl4tPETyfQgo02iRKILI2Nu31QGnt%2B6hJ1LdiBa1xrlW7WDv60ehAVUB5ldZTRoPwa9KhtpcwqGq6yaRL%2BDiasXrF%2BG3PsAlFG4vCsYM2fth7r2OPy5fhrayM9i6cyZWH01VnvRJ0RuA58ajdHEQ4TwYyuwbN0R3Ewwh39gS3zXqiGqOvPx5FAQRndqivpdx2DZsbdjsmdF38LeeQPRrnk3TNmVALumQzFz5e9Yt3kzNm%2FegD8WzUC%2F6qaIoI3cgFGzsfzgQ6RJLDR%2BII0r6SH%2B2gYsW7EHV1%2FI4FW3GZrVrwYvWSwub5mNvm3roc2Qefj7Xpr20z4vGY%2F2YvGcX7HhmRf6LN6AJd1dELr2Fyz%2B8xBy9WnJRAhdOhgSimhNtrCEXC%2Bnvcu%2Buw2%2F7zuBM1FuqNuwLip6WEAiKMB4dNzw%2FZQf0bC6C%2FSL0uTy6QCP2rdabQxfdypEDIt3IkPEwWkYMG0dIiuNwJ%2B7V%2BBH69tYOPwXbL8YhuRPLjTlcK3VFm0DS%2BHugW0IXrYKZ5NM4F2nBdq0a40G5Uoh6dLvmNG7NapV7ITlF57ls6MjAecXDkCjGs0x5K8wmNcdgOm%2FrcGGjZuo7WzGut%2FnYmwPD2ScDsaEjj%2Fgt3MRUCgB68od0aGtN5L%2B2Yw%2FgpZhd5gBXKq3RJuW9VHRRo0b%2B5dgZPtAVKk1EUciFEU%2Be6mk8H5ykCeA1Kw6Bg%2BqrM0gUGbE4MCuo0iTt8aA9vbvFU%2BdZKUh8fgabApXQSr3R5t6zpAUVPnpaFcks4SHqzGUyfE48ddWvFDrwSCgFeo4SwocefAEdJRqWQYuJu%2FhWJIWhYebB8LLy%2BsjpAA0%2FW4pND6jnxJVKiJCL2L732fxzkgD9DmKjSxg4%2BECM02GDHpSGzi9y4vyDbLjovEs5BJC9Bxg69kc9V3oM017jkd3DmLXHTWsSrmgVoADJIXULh2JAYwsHWGrX4QyUcbj9tWz%2BPtIAu1oG6H7%2F6rC5P1q7yu0YmHGlK1IKdsOP08ZSA2%2BO%2Fr164kG2Xsxd%2FJkrDj7iUUDrY96xjYo42oLK6phE7P1YOpSHpWr%2BsLTtzLq%2Fm8gJo76CY29Vbix909s274FJ%2FN4g6Y%2FOoLgmUMwfE0ozOsPwqRxvfFdYCX4%2BnjCQzNC8oZvpVpo9uN4jO%2FTFjWcebTxEtMyEUFmZAU3dyeY004jMZEPM9syqBRQARWq1kazPpMx6seGqCB7hFMb%2FsGxI5cRpf3Mz0Xm431YPHs2Vt2wR7u%2BA9CvYwt0HjkBP9W3RMji8ZgTfAB3S6xoiMbNi08QHa6Gb6NKKONiBSmycf3oEdy6%2BwSZrgGoWNoJloUZD%2FRg7W4PcyrWizKjm3RqE%2F6%2BEw5%2B7V7oWscLjgYfajxULByajgFTVuBu6X6YMagrWgR%2Bj8nLRqOe5CJm952ETecfQ%2FFJRQMfMsNScKzgCQduoJOogIG3PypWKIeyXj6o0qgTxq6Yj%2F%2BVIoh9uAcTf9mLsMjkVyP%2B1Hv4c1A79J6zD8LGYzF1Yj%2B0b1AF5Tyo3XCJ2o9PRX%2FUbTcc84KHoQK1TUPasenQRybWt4CtWyV4GiqRmZIIMf25ul9ZlPWtggYdhmLx8v5wSYvF4%2FNLsGDPCyjS3jvO5X%2Ba96w1dJQqooqqwyC01EZyIoQgi5ZEpWHDULMoDX8esjMzcf%2F0MSRTISI094CXdVFc37kzKbKRnn4f%2F55IBk8khoW7J6yL8tHcbouiqPFcJEawrtMfK5cswZLipqVzaaP%2BMbzIC0GtQnZaDGLiHuF5AX2eOjUFKU8fQXOJXilYeASiWqGCQY20uJvY%2B%2BdMTA1%2BDJ9WvTFpdCuUpiP9rMQ4hN%2B7iTCVHnRltBPUL1pZ8t5VJuokRLy4igNH%2FsH2dQsxrHdvDF99G%2B7dF2EVHVXXceXmNz4AKhau7M4RC0ne3%2BHnyT1RzcEIMqkB7Kt1pKKhLxqSg5g%2FczJWnvvEooF%2Bd4FQAJGQfhMdagNiCSQSbumHm0Y2g4N%2FTVSvXAkuVJQ%2FehKKB7mu9zH%2FYsua%2BfhlczRK1%2F0fevdsAl97MxjIhHnONKDPls%2BJAws4l7aGj7clLCyMcgyeXiMQ5pwrwjW%2BIpFI87kisRRyEytUrFIBHmWcoEyMRGx0FJIyuZs%2BDxqxMCtHLPyvz0D0aeEDS7kUehYeaD50PH5qYoPbQROxgIqGeyVMNGQnh%2BL4gnGYt%2Fk2hE1GYUKPJqhsLaUl9Rw3L0Uh6oUS%2BqUsYKyvW4SBF20H%2BZzt5N%2BgRd2%2BjrPHj%2BDAliBM6NsWXWdegXXHWVg1fxCaeFlA%2BoF6gRMLA%2FOIhUAvc8jEejBza4JxQVQ06F3Fr%2F2nYAsVDQUFdyo%2B9PuLxRDTXpz7KgKpFBJajzVLP3qGsHKohe9au8PYUIXoo%2F%2FiniIFOdU4AUen98evG%2F8FaTEKY7sEws%2FVCoYa29FcoIGnw72PKay9PFFKzx2u5sKX8SR4fAmkQmpf9Ge%2BREq%2FvxBCkQS6huawL98MzUrrQsZLxK0n0chSftF1vY9OgdWG23CZnPLGpArt3HXN6mBYv9xITiJI5a3Qv5vrG%2BcREKjUcQgr4HRLtVqNuGgFfeq0sKydYVmUPkaDmr53PGLorQJaitZOFh%2FWeRQGHY1JTUrT0VcAAoqb%2FLm15VKf%2FsyGrDRkxNzCxbBL2PDXhfxjLKiS8OT2Gaxffw5KOuos5eKDVj82gdU7nn%2Fq82vYNqUp%2FP0ro1qLodgYWR3DgtZi9aweqO4g14xwVJnpSE%2BMoWMlakxiY5gVdwcU1xBwTrnJGSACOSzMpUh5dBSrFk7E2BmrceTpBzgwKKOpWFhNxcI2KLy4mYUcsZAzmONR4zekoqET%2Bvfvh4bgRMNUrPog0aDSNBQZxexoeRoBwZ3zQW1OTxdyfa72pODW0aPYv%2BEY0u194N%2BwAXws6RX59xsa9L1aoWO7HmjhUbR4lZwHEPdI%2BNZ0pGvvCLP3mTYsBpxYWDJ7NlZet0Hb3gPRtyUVC3panwXa7uhZeqL58PHo2aQUbi%2BjouH3g59XNGSkIEOZSev4e5B8C%2Bsn9Udr%2FwqoVP0HBN23xf8WrMGKGf3QwNMKUk3BJSExJRMZtKk1K2VIy7r4BzgLaPubmZ6ONJ4hLEylyHhyHrsWjMTQyX%2FgSGhsznbF94QTC4OoWLjj1BvTB3XRiAWpUNuF6MioaGiKsUFjtKJhKrZcePJhoiE1EWkqJbWi4iCm9iIGn1MBdnYwoGKC6yOUV1di1q6ruJNWBe3b14G7jRwF7v7U8cWA3wciwM4YogJs7CV8AiXXZRJzBPjaQML5gX1F5Puo1OoMhN1%2FAJUqGxfPXHpjHYZrWI3g3WsoWtCegk%2BVnc%2BQYahvkOfB0IZenZ6AqAeXcOHlEqiSNqKXcfh8JPJqEBXnSZKthPphaM5ot0hwk0sqqOh%2FStowP3xU0GlYxYSOAvl0JMaNxoqb%2BJ8h7FhmWhqinz1GctQN7J3bAy07j8EfJ8MQy0V2VKuQHnsPx9dOxrABk7DjoZIaeQ10GTsDP%2FjK3ym6JOZ2KFO5FpwTriDk8gOEhwPeNcvB2crw5bIDN9NE6PvTgkd6Zizi3tCZ748MJnRUWa1OXQQ2ao0fh%2F6C1ctnY2AgD2fX%2F4rZU37B7tedNAqGioWre3JmFhSe%2F8PIqb2o2MkVC7loRUP1zhhARUN99X78%2Bt6igYqF1Cd4cO8u7j7WZtEOIez5Y1y5GY3U9zjIKuvpYzx4eBcPjMvB27s6KtnSP1ZxC5dunMXJJ0K4ubmhoo9VoQ0ZX9cClpbWsNAtqGXUkhmOU8f%2BxembOqjXvBla1fYs2hp5MckRC3OwIoSKhT6D0a9VHrGQi1Y0tBgxEb2alsKtJRM%2Bm2jIzkhG%2BM1LeBYVrj2nhfL4Ou7TdusFta13TjzLnFC3jjMtozjcun4Wd4gpHN3LwtPaCLLczpbzIaJtGteqRdEBVGrqh3Tnr2Po7A6%2F6jVRt35jdBgwC0E712B4gBESj8xG36HBOHIj6r3W1zViYepK3KZiYdrgbqjPzVK8%2FPu1UNFg7t5UO9NwJWem4T1FgzItEY8vn8GLZMUrYXb7X4Q8eYGE93IkDMeFY4%2BRkiRAwPe14GjKBRJU4tyOHbj%2FIhGkfCPUsDOFXkFKW4MBnMo7wliaIzgKI2HvUqx9qoR12zHo628B%2Fa8s2vFrJa7KTMPhId7wKR%2BAVvPvgSjTEb66I8qX80PV8ee0V1F4QuhaNESv9jYQi2uiWzc32rxrUaYi4cBglK1YHY06zMfdlyVMOyvFTSxvXwvVa9XG1Au0IePzYelsS%2B0lG9mJ9xEar720UAQQCizgbENvzVIi8cEjJGhf%2BdYRGFihTM3v0bGCOVQRt3Fm%2BzKM6hKI6n600ynrg4rVmqDrqNU4FSVHwE8L8MeWVRjWqDSMChhF8kVGcKnaGt0H90U5nXBcPrUJs5ZcRN7jRCQSPRgbc1FvkpBEO8wn%2Bc4sZSD82l781r8T%2Bowci7Fjx2L0sP7oO2Is5h2hKuQ1uF0SEujp60Nf3xDGZqXg4lcfjeu3RC1pFC78ex57jt7TXlsEUmMREZkG3SqdMWZKz3zEQi6vRMPAocPRzoWHJ6FU5GpfLZDUe9gbNBz1KjVC79kbceVlz6LCi3PbMatrDdTtORErLxYWW1MFxdMT%2BH3JAqw5qkLDH%2FtiIL3Xhgr09IhnCHsSikhiDCO5JUx1i9CM8biln5wTNN9CHYuHDy%2Fh4NE92LB8Onr3GIBfT%2FHRZMQSzBvVDhVs8zvp9OOT8OwBonTLodOgYfmLhVzyiIaBHXwhSX2GiITid7AF8WDTePRuXhl1eq3AoZCEV51W7GkEjeuC2n5dsWDPlfx9hvhSmFfqhpG9G6OKuwT3Ns9F8L5%2Fcee1AEvGKGUmgVyXWg81nERFSv6zGA%2B3Y%2FzooegzaITGdsaOHYhu3w1B8NFbiH3jBm6XhK6enNqOPoyo7di7BKDLDw1hb8lD%2BPF1OHrzMWKK%2FNgUeHYrFLq1hmDWsG5okJ9YyEUjGppR0TABre3jEUE755QizrSFLOqI1vX80WDY37gdnvbqOUfuw4QezeFfrg%2FW33peqC0qE29h99g%2BmHUoFaX7zMecjhVhry%2Bg9ekRzh%2BPpSJCBSMHW5iIiyICuKUf7vRM7a9v8PwyFe9Hj2D%2FhgUY2qURuiyJR4MZ67BuVhdUsJQV6PRdEnmt1HVEElQash7rN2zCjsOXcD0kBFeO78KGv9YguJeX9ioOHgQSc9SYsgP7D%2FyK%2F%2BUNu8d54lcZig0bt2DbriO4dP06rmtTyNWLOLZrC%2F5atRQ%2FeHCVWgTnypUgpFo3PfM8dp8tqmIQUKHiDL%2BKtAXNSEX6hb04zxSDBr7MDC71%2BmH2xoM4d%2BkU9m1ajilD%2BqF3z5%2Fw40%2B9MGD4JCzZcACHj%2B%2FFikmdUcfTDqaywroEHoRyO1Rt8j2G9K8MEn4Oh7f8hmWnXw3tdAxNYerig9K0LCOjw3HuypsCgEMEM9cAfDd8Ivo29ITs3lYEbbmAp2ofNPPLcb8sCJ7ACKZWjihtR5CVnIy4FzGviZYCkTuhWrv%2BmDGpG%2Fwdjd8hFnLRioaq7TFgxCj0b1y6aEtJUnsEtB6C5Ru3Yc%2Fhk7gQ8qruXzl7Eodp3V89qQ9aeuQe5fY68Tf3YsnwRqhSpTICeyzBFb12mLJqFeYNb4XyVrq01nMjsCRkpCRSSUE7A5k%2BDPN%2Fq6LDHSWcrUR2UhYEesYw08%2FG85CdWDhjAqat2IPLUZ%2FHgcGkfEcMGTESfZt6vVss5KIVDY0GTsLIn1qhotWnXTOxDeyFsYs2YeueYzhz4drLMr1%2B7RyO7t%2BFrRunokM1Nxhqr38TnsQIXi2HYEDjKnDFE%2ByeGYz9Z2%2FhVWtHRb47rdsmOlDfuYDbkS8Qm9%2BUhU1t9Oo7GCMHVoPw9klsWbYOEQ7l4V7aCYaF9nxC6Lt7w9bIGNKMx3gUk%2Fwevil68Oo4BdMHdkPdMgWIhVw0oqEhBv%2B2ED3ruYFqoSLh0m4K5gVvwrZ%2FzuDi5ZBXz%2FnqGRzYvR2bN4xGQyfz%2FG0x8SIW9PoeTSqXg1%2BtQdipqovhG7dixc%2FtUdHGQLs1NR6xChU4t4JSDqY528aLCbccm5pK%2ByCBOWxpPxh%2F%2FTDWT%2B2PftP%2Bxg1FxvstX5UAXit5zgFN384b3t5vJC9PeNi80TLpCKBrVw5VKzi9PmXJ40NgaP%2F2e%2BRJXh5lYE3fjifUg0nVPhjqQ5CZFIMj01cjRPs2BcODxMAMVXsNgjdJR3zkUcz847r2tW8cbieJngmsHN3hXa4yagY2w%2Ffdu6O7JnVFx%2FatEVitInzKuNAKLi96zAHaSEutyiOwwxD83NIE0Vf3Yd2vk7DxifZ1aSk4etRAs%2FJ8pIY%2Bwu1de3FH%2B9IrdCCSGcLCwQVONqYw0k1BYroaPF0zmOsXpdGnHVt2GhWX9OP05TC3tng1s1UYfAn0TSxgbVnUcM9UNIjlMDG3hKWRpEjTkVy8fUNu%2BSafOp%2BbPJxsYPaOWQF9Jx%2BUdS8Nw8gruHzuIVKVcnhX9YKdmRzcLjwOolZrEucUmpyp0Gz1Kh76sHH0RfU69dCgaXsMnLAYfy0aimZl4rF%2F0TjMWbIW%2F36GbRJCPVNYWljAuKjhnml91DWmZWNmDL3ch%2FOJkBjbwNEt%2F%2FLMSc6wNCx4t4KQCtZGA4ajbY3y0Ivei9mz1%2BPAhXCtI54Qro2bo4yLC2SZV7DzxG3ce56Pjw4VHja2dnCgdUiPZCM1IRk8E0PI9Qr2YXlJeiKSsjOhFLjCwdgA8iJvS%2BZDZmaDUqYGkBQmFnKhosHExh7mBlLaWWvzCkFm4QzXMvk939zkCJN3LQ3IPdCmuR3iosNw8%2Fpp3JG5o7y3B1xoGyd86c2ohopzzKM8C49DVlbxvCQ4TD19Ua1mLdRt0BRdRyzBX4d%2BR0%2FrRNzdNhrt%2BmzE3di0dy9XlUCKZ2l0dCLI61r6vlCjl1mUR48xfeGUnYrwkKX4qec2vIwfVAA8oT6sKnTHyF6OdHT0BJeX9kW%2FnUW589uBR8WDUCzVTuvnJLmeDGKBTtEa5Tehna5pmTr4rscQdLBN0uyBXjFpIc5xEw08MSy9A9Dsp54ox3%2BOiyfW45ffzuQZRb0ON0VOqw%2F3k%2BZfkUh9hod0BHYk1BhuruXRqIZD0TryEoJAVgp%2BLX5Apw5t4JJ9B3t3bsUfO%2B4gbyQEPSoG9fXNqHKIQUxCBCLydd9Jxp1%2FgjFz0I8YOHocxo0bh9GDeqLnhIXYePlNfwwqMLndEVz9MDCCmaUdPGq2RetqAfBUh%2BHQ4fM4e5XZVfHhQ9e2BvoO%2Fw7VKxoh%2FuxyjF%2ByA6fu5qxNiO2bo0%2FX2ijvJsTDddOwYucp3E14R1fDrS1xS0yan7WpUNIRcvgYwp9HwsC%2FJWqWcYB5ceKY%2FNfg68KmznDMHlAV9tQ8ri0dhiWnwhD92rKLGRxLCSGmyi7h7hMkZWTm35nfWIWuvQZg2M%2BjNbYzblw%2FdGgxHDvux4KOb16D2yWhsR2ajLkAebR97DeoAXT5Cjzeswz7HyUhrfi65D%2FDp5XmRUBHaACH%2BsOwfFE7lE5%2FiqsbhqF5za6Y%2Fe%2BzN5xyCNRZiXh0dC3G95%2BMQ9E6VPk7o9HQpfi1jTNSH13AX0Nbom6PX3H2%2BRvuPESFjPgHOPTnRAyefuSdhxsx8iEjDVlxudHoaHmJDFA6oDW6DekDbxKOc0e2YnHwec3rAj0bVGnTGxOmdIBz0nnsmDcCfcesxY34t4fB3CBZ%2BR6jY2XiE5zYEIRf5u5DZpl6VL3%2FiDq2BY3pSiK0Tpt6okXn9ujQ1g3pd%2Fdg0%2Bb12BHy6iQjvqU9rG1cYENlxP1Hz3DrXn4r5zI4VG2GLkNGomtFA8Sf34Cgfc%2FAN%2FKEv3vh21d4IivY2lnB2pwgLTYesbGJr4kWRlFRITkhE5m5e%2FG5Ex8r%2FoBRvRujqmMWHu%2BYi%2BCDF3Cb0wwCOTxajMDU3m1RziABu2YMxJA5f%2BHMszzOfy%2Fhct4hJvJDGYeQP8Zj%2FPIjeKDbDH36tkZlN5Oief2XIHhSM1T54ReMrGUHg%2BQ7%2BGvYQpwIi8pTdx1QvpwuZLo8qK8cwyVFMlLz86J0bo4Jo4ZhYE9vxO3dgjVLNyKzZgt4mxsUYXZSBKNylWEvkUCQdge3orI0SyBfC19cMHC7EIQG9qjeeTa2HF2PCYGGeHZmK%2BZ0CoRfuXKoVqcO6tSpjZo1%2FVG%2BSj38sOwSzOu3RiVjeitfDCPnWug%2BZzMVA2NQRx6Gk5tmomOgH8qVq0bvo%2FfWroma%2FhUQ0KAXgkPMUa9FRRQtruC3iTIxHJf%2Fno%2BRk%2Bdg8ZYoKhie4eahX9Gvzxys3BqCODqcEcptUbVZBwzuXxWIuIxd8%2Fqg44AFOBRGIDV1R%2BCPU7Fm8xIMCVDh8sqf0ZqWQe2WPTFu%2Fgqs37IZK6b0x4ARExB8zQj%2BdeuiflX7nHXJ9EhcO7Mfa7aF0PbwGc7vm4G2ftVRk9uWWqsNhq55AOs247Bw%2BSz0rO0A3a9rx1IOPBHkLg3QqWs3dKomQeiB1QheHYzDuU6k%2Bm6oUM4XAa46SLx0CddPn0XuqtAr%2BJAamqOUQ2k4WetBKkhCYpYAErmxZsq%2FcDKRlUUTFXRyM2OYmRmh%2BBv9vgUicHnraszpPQ5%2FnAnBCzrIubF2IWaMHojFe67gWSLt5MXG8G41DAMaV4KH4Bn2%2FNIPffotwL7r0cjWd0DVbtPx5%2FplGNbAHKGbJqJzYA3Ubd0d%2FaeswOYt67Fi%2Fjj0bPkz%2FrybBftGndGwrDPMNYWjxJNDwdh46Q6e0B7y4dqx6N62DmrUqYKKVeqi%2B%2BKzENcYiaAV09C%2FiTssiuIsWwIRGXqi%2FdRpaO5aCuqwtRg2aiuuP0ui0k3zKnw7doGLiQmE6acQvDcUcYp8vAxk5nB2dIC9szXE6alISkiByNoScrGwaB1maiwS1CqohT5wNxUVeUmmJJD%2F8dZfBAJ1dgYUkeEIj41DXFQ4Htx9hnSBADp8AXRLlYabtQWMjIxgbmkBY1nebZxqKNMTERn%2BArFxsYgKf6hZAxQI%2BOALdWFd2hXWFkb0XgtYmBsh760liaIeb10cSHYW0pLjEEONJD0lnTZDnDDj4uAbwJDbrWAi0zjfQZWB5PgIhEUkQ83L6YwsrCxgoNlGRKDKSoMiJhKR0fS9Ip%2FjRXgCsmRU3cv0oadnBCtzPYhFEnoffV9DIxhya9dqJdIUMXgREYs0jR3zoMPFY6Bvyc1I6Ih1YWBkDBMjecFhc0sQSVf%2FwNwpP2PqJV%2F0HDUVc%2FtVAhctQZX%2BAmf%2FmolpUxfjRIo32gwai9Ej2sFTlyArNgSb503B1Pn7EOXaEgMmjMGItmWhn%2FOWr6G4EIRpk8dj7q2qGDx%2BEqb2KA%2BNN1LoNkyZPAkT14vRY%2BJETBrfDC9Pdk64hNUzJmPykitw%2B2EcJo39Cf7vCNLx8Y%2B3%2Fsy8z%2FHWhaJEanwiFIpEJKVTwZXNzQIIIdGVQt%2FYDEZybjmQq7cqpEY9R0ScgtZzHkS6ZrC0MoG%2BLKdDItlpSIiJQkx0LGKjnuBRVCp9ZwnkUjEMzExhoGsAqUxK7UgPRrTzk8tEEPAIMhWReBEVj5SMnO2H3NH%2BOjRfrSLQEdK%2FwcgUpsb6Gj%2BEr8N6%2FsXoCl2x%2FMpT1PnjPOa38YUtF6VenYaI%2FePQvO%2FvuBItgUefIOwc1QDOnPelMgFnfuuAjjOPIYJXGr2CtmFCI1eYSvN7Iqcw1L0DVt2LRpNNN7GguQssNOIsHGvqB2DE8TA4TTuLHX38UEqeK8BScXZiLbRdcBXZ1YNwYGUHeFvKXgsK9ZKv5njrL46KKDPTSXJiIknkkkJBktOz8pxe%2BW40p7mlJ%2BfcR5MiKZmkZ%2BU5vbIE8%2F6nVf4HoK2VMjONpChyyzKZpKTRssxzAt%2B3jOLKGjK%2BpTmBYRXSefo%2FecpVRdKjLpM%2Ff25F3MRCIvf8jozbeIukcC%2BpM4niyQmydFAj4mwgJybujcig3%2F4hoYq3T7yL%2FXcZGdzAlMC%2BGRm86jJJ1uaTh1vJ5M5eBPwKpMeUXST3oMaMyBCyeUoXUtHKing2Gkp%2BP%2FOcpBVwkN6nO63yM%2FE%2Bp1V%2Bbrjj9bOo7SQrtO2ZgtpOBqFC5Ktoz4rPGTKqfGliRMe9deeeJ48S8jyV9EhyYm4j4mAmJjpG7mTAzgckKj3npcz4m%2BTv0Q2JtaGMGNr6kv%2FNP0AeJGa8OjX0JUfIEDdrIoeItN90n0Rq7yfkOfk90J6YCkEqzTpLwpO0BpIZSf6d15FUtJMRA5%2BeZMnJcJKcVUBJlcDTKvmTKFrt8B%2BCc4gTQCThIt3RJBZDJHj3Xti8cDs9%2BAIu1G3OvWIxVd%2F8r0NRZ8Q9w9WDO3BTXA8d2njmjBT%2F62icG4UQaaIWcmUp0oRCfldI22%2BF9Be3cGJ3MBYEbcE%2Fx%2B4jNjkWMXQ0eedBOiA2go2jCXRlJnC0FiIl9g5OnLqI61cu4WGyFNYunnAqZQXXCv7w97GA6tEZ7N%2B2DRu27sY%2FJ68iLDYW4feu4OimJQhatxcXogzhXaMJWjSsCi8bOfjJoTiw%2BQ8EbziO54pYhN25gAPbtmBd8AoErfkbZyP0Uem7vhg6sCPqeVlBr4DN5HE3j%2BLYifsQ%2BtRGzeruJW%2B5L%2F0Rju47hnB5eVT3Lw%2FH%2FKZpvhS5tiMSa9sz2g4KcwLAfdvWE4YTQWvw57IgbDx3B1HpSkTduI%2Bn1KaS5e5wNNeHRKoHqzJe0L1xAJfuPMSVk0dxJdQQbhUdYWlWCo5la6BRbTeoHp7GP7v%2Bxra167D7zE3cCI1DVtwtHNi%2BBkum%2Fo6j8TK41eIOl2oIXysZRDpZuLd1Iqau%2FRehiizE3jyJ%2Ffu3Y9PaIPy2aA3%2BuZsB9%2BajMG38D2joYwW5qIC%2BJ%2Bkq1qw8iJSKndDd3%2FqT7%2Fb5GPyHliQYhfE5liQYnwd1VhqSFPGI45Z%2B0nL2a%2BsIaccgM4KxsSGMDLRbOZXJVEhEIiI2FWodEfSMzWFpbkIbF64ZIlCmKxAXFYXomBhEPn%2BOqPg0QKZHG0x9GBkawtSINnJiKaT63FKOAeRSAXjcKbMxkYiKSUSGZnFXJ2fpB1zEQR0IJHIYmZrC2EAGcSG7oNiSBOPzk4mkyDgoUhRITMvKiRYMEXRpfTUwsYKxnlgb7jkbimcPEZ6QgSw1D2J9a9jaGkGXDlg01kNtK%2FrFC8TExiE24hEeRCshEMmgzy39WJhDX0LtSCaFXK4PYzNTyMU5SzzpcWEIi0hCZjYXn5N2olwUX2o5KhUBX6wLQxNLmJvoUnFRiKwrgUsSTDCUIJhgYLwLQlSaw9wys5SakOnclmUhd6iUSEDFQCENVzFggoFR4uFsJysD6ZnZ0GgPKie4g%2BBEIiEVHp%2FOdkqiYPiK%2FDcZjG8XTcwNiQx6%2BgYwMKBJXxcyifCTigUG46uACzYo5g5309qOgT61HdGnFQslFCYYGAwGg8FgFAoTDAwGg8FgMAqFCQYGg8FgMBiFwgQDg8FgMBiMQmGCgcFgMBgMRqEwwVDSUKUhOeIqTh8%2FjuO56dRZXLkXqQnjzGB8KtJiH%2BPWpTz1jqZTN8MQnqK9oAST%2BPAerp58%2FbtdexgJRc750wxG8ch6jhtnT%2BFEnvp1%2FMw1xGUpNbEcSgosDkMJQvHoPNaNaY5pZ41hZSHPCezDIbOGZ4O%2BmD06EGbaLAbjY%2FPsWBBWrFqNAw%2B0GZSslHjEJ9ii5cjRGDa4Puy1%2BSWGuOOY%2B%2FMvWHP0KXiGckjznM3l23E8%2BnVoBh9mVIziErkTw3osxrmYpFcDu2wFXoTHw3HIXuwYUAGmJeBAMCYYShCqzFTEvwhFRLI2IxcdEaSGlnCwMcTXduAz478Dd7hRVFQ0EjO0GS%2BRwsiSO9hNHyJtTokhOxnR4VGIUaRpTzR8ha6ZLSxNuciA2gwG40PJiseThxFIzs45GCwvEnNnOJnLSkTcByYYGAwGg8FgFArzYWAwGAwGg1EoTDAwGAwGg8EoFCYYGAwGg8FgFAoTDAwGg8FgMAqFCQYGg8FgMBiFwgQDg8FgMBiMQmGCgcFgMBgMRqEwwcBgMBgMBqNQmGBgMBgMBoNRCMD%2FAcK%2BCBDC%2BX8wAAAAAElFTkSuQmCC%3B%22%20vertex%3D%221%22%20parent%3D%221%22%3E%3CmxGeometry%20x%3D%22286%22%20y%3D%22200%22%20width%3D%22277.41%22%20height%3D%2245%22%20as%3D%22geometry%22%2F%3E%3C%2FmxCell%3E%3C%2Froot%3E%3C%2FmxGraphModel%3E&lt;/span&gt;" style="rounded=1;whiteSpace=wrap;html=1;" parent="1" vertex="1">
                    <mxGeometry x="655" y="215" width="120" height="60" as="geometry"/>
                </mxCell>
                <mxCell id="39" value="" style="edgeStyle=none;html=1;" parent="1" source="32" target="38" edge="1">
                    <mxGeometry relative="1" as="geometry"/>
                </mxCell>
                <mxCell id="32" value="Calculate colour correction matrix" style="rounded=1;whiteSpace=wrap;html=1;" parent="1" vertex="1">
                    <mxGeometry x="165" y="400" width="120" height="60" as="geometry"/>
                </mxCell>
                <mxCell id="41" value="" style="edgeStyle=none;html=1;" parent="1" source="38" target="40" edge="1">
                    <mxGeometry relative="1" as="geometry"/>
                </mxCell>
                <mxCell id="38" value="Apply colour correction matrix to dehazed image" style="rounded=1;whiteSpace=wrap;html=1;" parent="1" vertex="1">
                    <mxGeometry x="325" y="400" width="120" height="60" as="geometry"/>
                </mxCell>
                <mxCell id="43" value="" style="edgeStyle=none;html=1;" parent="1" source="40" target="42" edge="1">
                    <mxGeometry relative="1" as="geometry"/>
                </mxCell>
                <mxCell id="40" value="Return colour corrected image" style="rounded=1;whiteSpace=wrap;html=1;" parent="1" vertex="1">
                    <mxGeometry x="492.41" y="400" width="120" height="60" as="geometry"/>
                </mxCell>
                <mxCell id="42" value="End" style="ellipse;whiteSpace=wrap;html=1;aspect=fixed;" parent="1" vertex="1">
                    <mxGeometry x="655" y="405" width="50" height="50" as="geometry"/>
                </mxCell>
            </root>
        </mxGraphModel>
    </diagram>
</mxfile>